Escrow-900.ufo
<glyph name="exclam" format="2">
  <advance width="378"/>
  <unicode hex="0021"/>
  <outline>
    <contour>
      <point x="173" y="190" type="line"/>
      <point x="173" y="268"/>
      <point x="152" y="341"/>
      <point x="130" y="407" type="curve" smooth="yes"/>
      <point x="103" y="485"/>
      <point x="74" y="552"/>
      <point x="74" y="601" type="curve" smooth="yes"/>
      <point x="74" y="646"/>
      <point x="115" y="702"/>
      <point x="189" y="702" type="curve" smooth="yes"/>
      <point x="263" y="702"/>
      <point x="304" y="646"/>
      <point x="304" y="601" type="curve" smooth="yes"/>
      <point x="304" y="551"/>
      <point x="275" y="485"/>
      <point x="249" y="408" type="curve" smooth="yes"/>
      <point x="226" y="342"/>
      <point x="205" y="268"/>
      <point x="205" y="190" type="curve"/>
    </contour>
    <contour>
      <point x="189" y="-11" type="curve" smooth="yes"/>
      <point x="144" y="-11"/>
      <point x="107" y="28"/>
      <point x="107" y="75" type="curve" smooth="yes"/>
      <point x="107" y="122"/>
      <point x="144" y="161"/>
      <point x="189" y="161" type="curve" smooth="yes"/>
      <point x="234" y="161"/>
      <point x="271" y="122"/>
      <point x="271" y="75" type="curve" smooth="yes"/>
      <point x="271" y="28"/>
      <point x="234" y="-11"/>
    </contour>
  </outline>
</glyph>
<glyph name="quotedbl" format="2">
  <advance width="529"/>
  <unicode hex="0022"/>
  <outline>
    <contour>
      <point x="141" y="363" type="curve"/>
      <point x="174" y="363" type="line"/>
      <point x="224" y="525"/>
      <point x="243" y="584"/>
      <point x="243" y="622" type="curve" smooth="yes"/>
      <point x="243" y="659"/>
      <point x="205" y="702"/>
      <point x="155" y="702" type="curve" smooth="yes"/>
      <point x="105" y="702"/>
      <point x="66" y="659"/>
      <point x="66" y="622" type="curve" smooth="yes"/>
      <point x="66" y="584"/>
      <point x="87" y="530"/>
    </contour>
    <contour>
      <point x="361" y="363" type="curve"/>
      <point x="394" y="363" type="line"/>
      <point x="444" y="525"/>
      <point x="463" y="584"/>
      <point x="463" y="622" type="curve" smooth="yes"/>
      <point x="463" y="659"/>
      <point x="425" y="702"/>
      <point x="375" y="702" type="curve" smooth="yes"/>
      <point x="325" y="702"/>
      <point x="286" y="659"/>
      <point x="286" y="622" type="curve" smooth="yes"/>
      <point x="286" y="584"/>
      <point x="307" y="530"/>
    </contour>
  </outline>
</glyph>
<glyph name="numbersign" format="2">
  <advance width="474"/>
  <unicode hex="0023"/>
  <outline>
    <contour>
      <point x="116" y="0" type="line"/>
      <point x="262" y="690" type="line"/>
      <point x="210" y="690" type="line"/>
      <point x="64" y="0" type="line"/>
    </contour>
    <contour>
      <point x="462" y="389" type="line"/>
      <point x="462" y="501" type="line"/>
      <point x="12" y="501" type="line"/>
      <point x="12" y="389" type="line"/>
    </contour>
    <contour>
      <point x="462" y="179" type="line"/>
      <point x="462" y="291" type="line"/>
      <point x="12" y="291" type="line"/>
      <point x="12" y="179" type="line"/>
    </contour>
    <contour>
      <point x="264" y="0" type="line"/>
      <point x="410" y="690" type="line"/>
      <point x="358" y="690" type="line"/>
      <point x="212" y="0" type="line"/>
    </contour>
  </outline>
</glyph>
<glyph name="dollar" format="2">
  <advance width="611"/>
  <unicode hex="0024"/>
  <outline>
    <contour>
      <point x="290" y="-12" type="curve" smooth="yes"/>
      <point x="441" y="-12"/>
      <point x="566" y="87"/>
      <point x="566" y="207" type="curve" smooth="yes"/>
      <point x="566" y="325"/>
      <point x="512" y="372"/>
      <point x="317" y="424" type="curve" smooth="yes"/>
      <point x="227" y="448"/>
      <point x="189" y="486"/>
      <point x="189" y="550" type="curve" smooth="yes"/>
      <point x="189" y="625"/>
      <point x="239" y="664"/>
      <point x="334" y="664" type="curve" smooth="yes"/>
      <point x="421" y="664"/>
      <point x="497" y="629"/>
      <point x="497" y="590" type="curve" smooth="yes"/>
      <point x="497" y="558"/>
      <point x="405" y="552"/>
      <point x="405" y="488" type="curve"/>
      <point x="405" y="457"/>
      <point x="430" y="434"/>
      <point x="463" y="434" type="curve" smooth="yes"/>
      <point x="512" y="434"/>
      <point x="552" y="487"/>
      <point x="552" y="552" type="curve" smooth="yes"/>
      <point x="552" y="645"/>
      <point x="467" y="702"/>
      <point x="327" y="702" type="curve" smooth="yes"/>
      <point x="177" y="702"/>
      <point x="58" y="608"/>
      <point x="58" y="491" type="curve" smooth="yes"/>
      <point x="58" y="359"/>
      <point x="124" y="297"/>
      <point x="317" y="250" type="curve" smooth="yes"/>
      <point x="400" y="230"/>
      <point x="431" y="203"/>
      <point x="431" y="150" type="curve" smooth="yes"/>
      <point x="431" y="67"/>
      <point x="381" y="26"/>
      <point x="278" y="26" type="curve" smooth="yes"/>
      <point x="189" y="26"/>
      <point x="120" y="57"/>
      <point x="120" y="97" type="curve" smooth="yes"/>
      <point x="120" y="130"/>
      <point x="182" y="142"/>
      <point x="182" y="196" type="curve" smooth="yes"/>
      <point x="182" y="225"/>
      <point x="159" y="247"/>
      <point x="128" y="247" type="curve" smooth="yes"/>
      <point x="81" y="247"/>
      <point x="46" y="203"/>
      <point x="46" y="145" type="curve" smooth="yes"/>
      <point x="46" y="54"/>
      <point x="149" y="-12"/>
    </contour>
    <contour>
      <point x="291" y="-122" type="line"/>
      <point x="291" y="760" type="line"/>
      <point x="251" y="760" type="line"/>
      <point x="251" y="-122" type="line"/>
    </contour>
    <contour>
      <point x="381" y="-122" type="line"/>
      <point x="381" y="760" type="line"/>
      <point x="341" y="760" type="line"/>
      <point x="341" y="-122" type="line"/>
    </contour>
  </outline>
</glyph>
<glyph name="percent" format="2">
  <advance width="848"/>
  <unicode hex="0025"/>
  <outline>
    <contour>
      <point x="184" y="0" type="line"/>
      <point x="595" y="652" type="line"/>
      <point x="566" y="640"/>
      <point x="552" y="629"/>
      <point x="505" y="629" type="curve" smooth="yes"/>
      <point x="468" y="629"/>
      <point x="432" y="634"/>
      <point x="401" y="643" type="curve"/>
      <point x="420" y="621"/>
      <point x="429" y="595"/>
      <point x="429" y="555" type="curve" smooth="yes"/>
      <point x="429" y="428"/>
      <point x="365" y="289"/>
      <point x="217" y="289" type="curve" smooth="yes"/>
      <point x="101" y="289"/>
      <point x="26" y="356"/>
      <point x="26" y="459" type="curve" smooth="yes"/>
      <point x="26" y="590"/>
      <point x="144" y="702"/>
      <point x="274" y="702" type="curve" smooth="yes"/>
      <point x="347" y="702"/>
      <point x="376" y="670"/>
      <point x="507" y="670" type="curve" smooth="yes"/>
      <point x="580" y="670"/>
      <point x="586" y="684"/>
      <point x="629" y="702" type="curve"/>
      <point x="667" y="682" type="line"/>
      <point x="236" y="0" type="line"/>
    </contour>
    <contour>
      <point x="610" y="-12" type="curve" smooth="yes"/>
      <point x="494" y="-12"/>
      <point x="419" y="55"/>
      <point x="419" y="158" type="curve" smooth="yes"/>
      <point x="419" y="329"/>
      <point x="579" y="401"/>
      <point x="684" y="401" type="curve" smooth="yes"/>
      <point x="777" y="401"/>
      <point x="822" y="347"/>
      <point x="822" y="252" type="curve" smooth="yes"/>
      <point x="822" y="122"/>
      <point x="758" y="-12"/>
    </contour>
    <contour>
      <point x="260" y="335" type="curve" smooth="yes"/>
      <point x="337" y="335"/>
      <point x="388" y="447"/>
      <point x="388" y="558" type="curve" smooth="yes"/>
      <point x="388" y="622"/>
      <point x="368" y="664"/>
      <point x="321" y="664" type="curve" smooth="yes"/>
      <point x="264" y="664"/>
      <point x="203" y="532"/>
      <point x="203" y="415" type="curve" smooth="yes"/>
      <point x="203" y="348"/>
      <point x="230" y="335"/>
    </contour>
    <contour>
      <point x="653" y="34" type="curve" smooth="yes"/>
      <point x="730" y="34"/>
      <point x="781" y="146"/>
      <point x="781" y="257" type="curve" smooth="yes"/>
      <point x="781" y="321"/>
      <point x="761" y="363"/>
      <point x="714" y="363" type="curve" smooth="yes"/>
      <point x="657" y="363"/>
      <point x="596" y="231"/>
      <point x="596" y="114" type="curve" smooth="yes"/>
      <point x="596" y="47"/>
      <point x="623" y="34"/>
    </contour>
  </outline>
</glyph>
<glyph name="ampersand" format="2">
  <advance width="826"/>
  <unicode hex="0026"/>
  <outline>
    <contour>
      <point x="303" y="589" type="curve" smooth="yes"/>
      <point x="303" y="550"/>
      <point x="322" y="511"/>
      <point x="379" y="432" type="curve" smooth="yes"/>
      <point x="591" y="142" type="line" smooth="yes"/>
      <point x="632" y="85"/>
      <point x="655" y="67"/>
      <point x="687" y="67" type="curve" smooth="yes"/>
      <point x="716" y="67"/>
      <point x="737" y="96"/>
      <point x="745" y="149" type="curve"/>
      <point x="779" y="146" type="line"/>
      <point x="756" y="34"/>
      <point x="704" y="-12"/>
      <point x="601" y="-12" type="curve" smooth="yes"/>
      <point x="517" y="-12"/>
      <point x="475" y="9"/>
      <point x="426" y="77" type="curve" smooth="yes"/>
      <point x="216" y="366" type="line" smooth="yes"/>
      <point x="164" y="437"/>
      <point x="143" y="487"/>
      <point x="143" y="538" type="curve" smooth="yes"/>
      <point x="143" y="638"/>
      <point x="233" y="701"/>
      <point x="377" y="701" type="curve" smooth="yes"/>
      <point x="467" y="701"/>
      <point x="535" y="646"/>
      <point x="535" y="572" type="curve" smooth="yes"/>
      <point x="535" y="505"/>
      <point x="474" y="442"/>
      <point x="379" y="412" type="curve"/>
      <point x="362" y="437" type="line"/>
      <point x="413" y="461"/>
      <point x="448" y="519"/>
      <point x="448" y="578" type="curve" smooth="yes"/>
      <point x="448" y="635"/>
      <point x="418" y="668"/>
      <point x="368" y="668" type="curve" smooth="yes"/>
      <point x="329" y="668"/>
      <point x="303" y="636"/>
    </contour>
    <contour>
      <point x="240" y="-12" type="curve" smooth="yes"/>
      <point x="122" y="-12"/>
      <point x="34" y="66"/>
      <point x="34" y="171" type="curve" smooth="yes"/>
      <point x="34" y="251"/>
      <point x="88" y="316"/>
      <point x="214" y="386" type="curve"/>
      <point x="231" y="362" type="line"/>
      <point x="204" y="336"/>
      <point x="194" y="309"/>
      <point x="194" y="264" type="curve" smooth="yes"/>
      <point x="194" y="165"/>
      <point x="272" y="71"/>
      <point x="354" y="71" type="curve" smooth="yes"/>
      <point x="388" y="71"/>
      <point x="414" y="79"/>
      <point x="437" y="95" type="curve"/>
      <point x="465" y="58" type="line"/>
      <point x="401" y="12"/>
      <point x="324" y="-12"/>
    </contour>
    <contour>
      <point x="540" y="189" type="line"/>
      <point x="607" y="265"/>
      <point x="652" y="339"/>
      <point x="652" y="373" type="curve" smooth="yes"/>
      <point x="652" y="392"/>
      <point x="630" y="402"/>
      <point x="588" y="403" type="curve"/>
      <point x="588" y="433" type="line"/>
      <point x="802" y="433" type="line"/>
      <point x="802" y="403" type="line"/>
      <point x="749" y="400"/>
      <point x="745" y="397"/>
      <point x="684" y="313" type="curve" smooth="yes"/>
      <point x="665" y="287"/>
      <point x="684" y="312"/>
      <point x="564" y="157" type="curve"/>
    </contour>
  </outline>
</glyph>
<glyph name="quotesingle" format="2">
  <advance width="319"/>
  <unicode hex="0027"/>
  <outline>
    <contour>
      <point x="146" y="363" type="curve"/>
      <point x="179" y="363" type="line"/>
      <point x="229" y="525"/>
      <point x="253" y="578"/>
      <point x="253" y="618" type="curve" smooth="yes"/>
      <point x="253" y="656"/>
      <point x="213" y="702"/>
      <point x="160" y="702" type="curve" smooth="yes"/>
      <point x="107" y="702"/>
      <point x="66" y="656"/>
      <point x="66" y="618" type="curve" smooth="yes"/>
      <point x="66" y="578"/>
      <point x="92" y="530"/>
    </contour>
  </outline>
</glyph>
<glyph name="parenleft" format="2">
  <advance width="379"/>
  <unicode hex="0028"/>
  <outline>
    <contour>
      <point x="312" y="-143" type="line"/>
      <point x="230" y="-83"/>
      <point x="25" y="73"/>
      <point x="25" y="295" type="curve" smooth="yes"/>
      <point x="25" y="518"/>
      <point x="230" y="674"/>
      <point x="312" y="733" type="curve"/>
      <point x="338" y="701" type="line"/>
      <point x="260" y="646"/>
      <point x="222" y="542"/>
      <point x="222" y="295" type="curve" smooth="yes"/>
      <point x="222" y="48"/>
      <point x="260" y="-55"/>
      <point x="338" y="-111" type="curve"/>
    </contour>
  </outline>
</glyph>
<glyph name="parenright" format="2">
  <advance width="379"/>
  <unicode hex="0029"/>
  <outline>
    <contour>
      <point x="67" y="-143" type="curve"/>
      <point x="41" y="-111" type="line"/>
      <point x="119" y="-56"/>
      <point x="157" y="48"/>
      <point x="157" y="295" type="curve" smooth="yes"/>
      <point x="157" y="542"/>
      <point x="119" y="645"/>
      <point x="41" y="701" type="curve"/>
      <point x="67" y="733" type="line"/>
      <point x="149" y="673"/>
      <point x="354" y="517"/>
      <point x="354" y="295" type="curve" smooth="yes"/>
      <point x="354" y="72"/>
      <point x="149" y="-84"/>
    </contour>
  </outline>
</glyph>
<glyph name="asterisk" format="2">
  <advance width="524"/>
  <unicode hex="002A"/>
  <outline>
    <contour>
      <point x="116" y="267" type="curve" smooth="yes"/>
      <point x="87" y="288"/>
      <point x="80" y="335"/>
      <point x="103" y="365" type="curve" smooth="yes"/>
      <point x="118" y="384"/>
      <point x="234" y="452"/>
      <point x="246" y="466" type="curve"/>
      <point x="228" y="468"/>
      <point x="91" y="450"/>
      <point x="69" y="457" type="curve" smooth="yes"/>
      <point x="34" y="467"/>
      <point x="13" y="511"/>
      <point x="25" y="547" type="curve" smooth="yes"/>
      <point x="37" y="580"/>
      <point x="79" y="601"/>
      <point x="113" y="589" type="curve" smooth="yes"/>
      <point x="135" y="581"/>
      <point x="237" y="492"/>
      <point x="254" y="484" type="curve"/>
      <point x="248" y="502"/>
      <point x="189" y="627"/>
      <point x="189" y="650" type="curve" smooth="yes"/>
      <point x="189" y="687"/>
      <point x="224" y="722"/>
      <point x="260" y="722" type="curve" smooth="yes"/>
      <point x="296" y="722"/>
      <point x="329" y="687"/>
      <point x="329" y="650" type="curve" smooth="yes"/>
      <point x="329" y="627"/>
      <point x="276" y="502"/>
      <point x="270" y="484" type="curve"/>
      <point x="287" y="493"/>
      <point x="388" y="589"/>
      <point x="411" y="596" type="curve" smooth="yes"/>
      <point x="447" y="607"/>
      <point x="490" y="584"/>
      <point x="501" y="549" type="curve" smooth="yes"/>
      <point x="511" y="514"/>
      <point x="489" y="471"/>
      <point x="454" y="460" type="curve" smooth="yes"/>
      <point x="430" y="453"/>
      <point x="296" y="468"/>
      <point x="278" y="466" type="curve"/>
      <point x="291" y="451"/>
      <point x="412" y="387"/>
      <point x="427" y="367" type="curve" smooth="yes"/>
      <point x="448" y="338"/>
      <point x="441" y="290"/>
      <point x="411" y="268" type="curve" smooth="yes"/>
      <point x="381" y="246"/>
      <point x="331" y="255"/>
      <point x="311" y="287" type="curve" smooth="yes"/>
      <point x="299" y="306"/>
      <point x="269" y="438"/>
      <point x="262" y="454" type="curve"/>
      <point x="256" y="436"/>
      <point x="230" y="301"/>
      <point x="215" y="282" type="curve" smooth="yes"/>
      <point x="193" y="253"/>
      <point x="146" y="245"/>
    </contour>
  </outline>
</glyph>
<glyph name="plus" format="2">
  <advance width="534"/>
  <unicode hex="002B"/>
  <outline>
    <contour>
      <point x="296" y="155" type="line"/>
      <point x="238" y="155" type="line"/>
      <point x="238" y="530" type="line"/>
      <point x="296" y="530" type="line"/>
    </contour>
    <contour>
      <point x="82" y="314" type="line"/>
      <point x="82" y="366" type="line"/>
      <point x="452" y="366" type="line"/>
      <point x="452" y="314" type="line"/>
    </contour>
  </outline>
</glyph>
<glyph name="comma" format="2">
  <advance width="345"/>
  <unicode hex="002C"/>
  <outline>
    <contour>
      <point x="47" y="-142" type="curve"/>
      <point x="37" y="-106" type="line"/>
      <point x="103" y="-86"/>
      <point x="187" y="-46"/>
      <point x="187" y="0" type="curve" smooth="yes"/>
      <point x="187" y="27"/>
      <point x="61" y="10"/>
      <point x="61" y="109" type="curve" smooth="yes"/>
      <point x="61" y="155"/>
      <point x="101" y="203"/>
      <point x="167" y="203" type="curve" smooth="yes"/>
      <point x="226" y="203"/>
      <point x="280" y="155"/>
      <point x="280" y="55" type="curve" smooth="yes"/>
      <point x="280" y="-33"/>
      <point x="185" y="-108"/>
    </contour>
  </outline>
</glyph>
<glyph name="hyphen" format="2">
  <advance width="434"/>
  <unicode hex="002D"/>
  <outline>
    <contour>
      <point x="82" y="236" type="line"/>
      <point x="82" y="333" type="line"/>
      <point x="352" y="333" type="line"/>
      <point x="352" y="236" type="line"/>
    </contour>
  </outline>
</glyph>
<glyph name="period" format="2">
  <advance width="348"/>
  <unicode hex="002E"/>
  <outline>
    <contour>
      <point x="174" y="-12" type="curve" smooth="yes"/>
      <point x="118" y="-12"/>
      <point x="71" y="36"/>
      <point x="71" y="95" type="curve" smooth="yes"/>
      <point x="71" y="154"/>
      <point x="118" y="203"/>
      <point x="174" y="203" type="curve" smooth="yes"/>
      <point x="230" y="203"/>
      <point x="277" y="154"/>
      <point x="277" y="95" type="curve" smooth="yes"/>
      <point x="277" y="36"/>
      <point x="230" y="-12"/>
    </contour>
  </outline>
</glyph>
<glyph name="slash" format="2">
  <advance width="489"/>
  <unicode hex="002F"/>
  <outline>
    <contour>
      <point x="27" y="0" type="line"/>
      <point x="404" y="690" type="line"/>
      <point x="462" y="690" type="line"/>
      <point x="85" y="0" type="line"/>
    </contour>
  </outline>
</glyph>
<glyph name="zero" format="2">
  <advance width="618"/>
  <unicode hex="0030"/>
  <outline>
    <contour>
      <point x="310" y="-12" type="curve" smooth="yes"/>
      <point x="158" y="-12"/>
      <point x="36" y="147"/>
      <point x="36" y="345" type="curve" smooth="yes"/>
      <point x="36" y="543"/>
      <point x="158" y="702"/>
      <point x="310" y="702" type="curve" smooth="yes"/>
      <point x="461" y="702"/>
      <point x="582" y="543"/>
      <point x="582" y="345" type="curve" smooth="yes"/>
      <point x="582" y="147"/>
      <point x="461" y="-12"/>
    </contour>
    <contour>
      <point x="310" y="24" type="curve" smooth="yes"/>
      <point x="368" y="24"/>
      <point x="386" y="68"/>
      <point x="391" y="227" type="curve" smooth="yes"/>
      <point x="394" y="306"/>
      <point x="394" y="374"/>
      <point x="391" y="452" type="curve" smooth="yes"/>
      <point x="385" y="632"/>
      <point x="372" y="666"/>
      <point x="310" y="666" type="curve" smooth="yes"/>
      <point x="248" y="666"/>
      <point x="234" y="631"/>
      <point x="227" y="452" type="curve" smooth="yes"/>
      <point x="224" y="374"/>
      <point x="224" y="306"/>
      <point x="227" y="227" type="curve" smooth="yes"/>
      <point x="233" y="67"/>
      <point x="251" y="24"/>
    </contour>
  </outline>
</glyph>
<glyph name="one" format="2">
  <advance width="431"/>
  <unicode hex="0031"/>
  <outline>
    <contour>
      <point x="50" y="0" type="line"/>
      <point x="50" y="36" type="line"/>
      <point x="88" y="36" type="line" smooth="yes"/>
      <point x="131" y="36"/>
      <point x="140" y="45"/>
      <point x="140" y="81" type="curve" smooth="yes"/>
      <point x="140" y="595" type="line"/>
      <point x="140" y="595"/>
      <point x="73" y="615"/>
      <point x="32" y="639" type="curve"/>
      <point x="47" y="671" type="line"/>
      <point x="107" y="645"/>
      <point x="241" y="649"/>
      <point x="304" y="703" type="curve"/>
      <point x="323" y="697" type="line"/>
      <point x="323" y="82" type="line" smooth="yes"/>
      <point x="323" y="45"/>
      <point x="336" y="36"/>
      <point x="385" y="36" type="curve" smooth="yes"/>
      <point x="412" y="36" type="line"/>
      <point x="412" y="0" type="line"/>
    </contour>
  </outline>
</glyph>
<glyph name="two" format="2">
  <advance width="548"/>
  <unicode hex="0032"/>
  <outline>
    <contour>
      <point x="23" y="0" type="line"/>
      <point x="23" y="25" type="line"/>
      <point x="258" y="273"/>
      <point x="310" y="361"/>
      <point x="310" y="511" type="curve" smooth="yes"/>
      <point x="310" y="593"/>
      <point x="255" y="645"/>
      <point x="170" y="645" type="curve" smooth="yes"/>
      <point x="124" y="645"/>
      <point x="98" y="630"/>
      <point x="98" y="604" type="curve" smooth="yes"/>
      <point x="98" y="563"/>
      <point x="214" y="538"/>
      <point x="214" y="456" type="curve" smooth="yes"/>
      <point x="214" y="420"/>
      <point x="183" y="393"/>
      <point x="141" y="393" type="curve" smooth="yes"/>
      <point x="71" y="393"/>
      <point x="25" y="447"/>
      <point x="25" y="528" type="curve" smooth="yes"/>
      <point x="25" y="630"/>
      <point x="118" y="702"/>
      <point x="250" y="702" type="curve" smooth="yes"/>
      <point x="405" y="702"/>
      <point x="505" y="621"/>
      <point x="505" y="496" type="curve" smooth="yes"/>
      <point x="505" y="424"/>
      <point x="461" y="361"/>
      <point x="360" y="288" type="curve" smooth="yes"/>
      <point x="275" y="227"/>
      <point x="252" y="209"/>
      <point x="237" y="194" type="curve" smooth="yes"/>
      <point x="150" y="108" type="line"/>
      <point x="427" y="108" type="line" smooth="yes"/>
      <point x="460" y="108"/>
      <point x="475" y="130"/>
      <point x="511" y="229" type="curve"/>
      <point x="537" y="226" type="line"/>
      <point x="503" y="0" type="line"/>
    </contour>
  </outline>
</glyph>
<glyph name="three" format="2">
  <advance width="563"/>
  <unicode hex="0033"/>
  <outline>
    <contour>
      <point x="248" y="-12" type="curve" smooth="yes"/>
      <point x="85" y="-12"/>
      <point x="8" y="36"/>
      <point x="8" y="137" type="curve" smooth="yes"/>
      <point x="8" y="206"/>
      <point x="57" y="264"/>
      <point x="117" y="264" type="curve" smooth="yes"/>
      <point x="159" y="264"/>
      <point x="190" y="235"/>
      <point x="190" y="195" type="curve" smooth="yes"/>
      <point x="190" y="138"/>
      <point x="104" y="91"/>
      <point x="104" y="65" type="curve" smooth="yes"/>
      <point x="104" y="40"/>
      <point x="129" y="28"/>
      <point x="180" y="28" type="curve" smooth="yes"/>
      <point x="286" y="28"/>
      <point x="360" y="102"/>
      <point x="360" y="206" type="curve" smooth="yes"/>
      <point x="360" y="296"/>
      <point x="319" y="338"/>
      <point x="232" y="338" type="curve" smooth="yes"/>
      <point x="218" y="338"/>
      <point x="191" y="333"/>
      <point x="174" y="328" type="curve" smooth="yes"/>
      <point x="151" y="321"/>
      <point x="136" y="329"/>
      <point x="136" y="347" type="curve" smooth="yes"/>
      <point x="136" y="358"/>
      <point x="151" y="369"/>
      <point x="168" y="371" type="curve" smooth="yes"/>
      <point x="265" y="382"/>
      <point x="327" y="448"/>
      <point x="327" y="539" type="curve" smooth="yes"/>
      <point x="327" y="616"/>
      <point x="281" y="657"/>
      <point x="195" y="657" type="curve" smooth="yes"/>
      <point x="155" y="657"/>
      <point x="124" y="641"/>
      <point x="124" y="621" type="curve" smooth="yes"/>
      <point x="124" y="590"/>
      <point x="208" y="552"/>
      <point x="208" y="492" type="curve" smooth="yes"/>
      <point x="208" y="459"/>
      <point x="177" y="433"/>
      <point x="137" y="433" type="curve" smooth="yes"/>
      <point x="80" y="433"/>
      <point x="40" y="479"/>
      <point x="40" y="544" type="curve" smooth="yes"/>
      <point x="40" y="641"/>
      <point x="136" y="702"/>
      <point x="290" y="702" type="curve" smooth="yes"/>
      <point x="423" y="702"/>
      <point x="509" y="639"/>
      <point x="509" y="541" type="curve" smooth="yes"/>
      <point x="509" y="467"/>
      <point x="429" y="408"/>
      <point x="279" y="372" type="curve"/>
      <point x="281" y="364" type="line"/>
      <point x="463" y="364"/>
      <point x="548" y="310"/>
      <point x="548" y="195" type="curve" smooth="yes"/>
      <point x="548" y="66"/>
      <point x="434" y="-12"/>
    </contour>
  </outline>
</glyph>
<glyph name="four" format="2">
  <advance width="635"/>
  <unicode hex="0034"/>
  <outline>
    <contour>
      <point x="465" y="82" type="line" smooth="yes"/>
      <point x="465" y="45"/>
      <point x="477" y="36"/>
      <point x="511" y="36" type="curve" smooth="yes"/>
      <point x="538" y="36" type="line"/>
      <point x="538" y="0" type="line"/>
      <point x="205" y="0" type="line"/>
      <point x="205" y="36" type="line"/>
      <point x="228" y="36" type="line" smooth="yes"/>
      <point x="276" y="36"/>
      <point x="284" y="45"/>
      <point x="284" y="81" type="curve" smooth="yes"/>
      <point x="284" y="529" type="line"/>
      <point x="71" y="247" type="line"/>
      <point x="499" y="247" type="line" smooth="yes"/>
      <point x="535.0" y="247.0"/>
      <point x="545" y="248"/>
      <point x="550" y="310" type="curve" smooth="yes"/>
      <point x="552" y="337" type="line"/>
      <point x="583" y="337" type="line"/>
      <point x="583" y="104" type="line"/>
      <point x="552" y="104" type="line"/>
      <point x="550" y="122" type="line" smooth="yes"/>
      <point x="542" y="190"/>
      <point x="531.0" y="194.0"/>
      <point x="498" y="194" type="curve" smooth="yes"/>
      <point x="6" y="194" type="line"/>
      <point x="6" y="235" type="line"/>
      <point x="356" y="702" type="line"/>
      <point x="465" y="702" type="line"/>
    </contour>
  </outline>
</glyph>
<glyph name="five" format="2">
  <advance width="568"/>
  <unicode hex="0035"/>
  <outline>
    <contour>
      <point x="222" y="-13" type="curve" smooth="yes"/>
      <point x="89" y="-13"/>
      <point x="13" y="40"/>
      <point x="13" y="132" type="curve" smooth="yes"/>
      <point x="13" y="206"/>
      <point x="59" y="259"/>
      <point x="125" y="259" type="curve"/>
      <point x="167" y="259"/>
      <point x="192" y="234"/>
      <point x="192" y="194" type="curve" smooth="yes"/>
      <point x="192" y="125"/>
      <point x="104" y="93"/>
      <point x="104" y="64" type="curve" smooth="yes"/>
      <point x="104" y="40"/>
      <point x="130" y="28"/>
      <point x="180" y="28" type="curve" smooth="yes"/>
      <point x="286" y="28"/>
      <point x="359" y="120"/>
      <point x="359" y="255" type="curve" smooth="yes"/>
      <point x="359" y="337"/>
      <point x="310" y="389"/>
      <point x="234" y="389" type="curve" smooth="yes"/>
      <point x="187" y="389"/>
      <point x="156" y="370"/>
      <point x="128" y="325" type="curve"/>
      <point x="91" y="333" type="line"/>
      <point x="169" y="698" type="line"/>
      <point x="199" y="701" type="line"/>
      <point x="343" y="631"/>
      <point x="456" y="627"/>
      <point x="521" y="690" type="curve"/>
      <point x="543" y="670" type="line"/>
      <point x="482" y="567"/>
      <point x="340" y="506"/>
      <point x="173" y="510" type="curve"/>
      <point x="149" y="401" type="line"/>
      <point x="185" y="416"/>
      <point x="252" y="426"/>
      <point x="311" y="426" type="curve" smooth="yes"/>
      <point x="468" y="426"/>
      <point x="553" y="358"/>
      <point x="553" y="233" type="curve" smooth="yes"/>
      <point x="553" y="93"/>
      <point x="410" y="-13"/>
    </contour>
  </outline>
</glyph>
<glyph name="six" format="2">
  <advance width="584"/>
  <unicode hex="0036"/>
  <outline>
    <contour>
      <point x="292" y="-12" type="curve" smooth="yes"/>
      <point x="135" y="-12"/>
      <point x="30" y="116"/>
      <point x="30" y="309" type="curve" smooth="yes"/>
      <point x="30" y="538"/>
      <point x="160" y="702"/>
      <point x="341" y="702" type="curve" smooth="yes"/>
      <point x="449" y="702"/>
      <point x="513" y="656"/>
      <point x="513" y="579" type="curve" smooth="yes"/>
      <point x="513" y="517"/>
      <point x="471" y="472"/>
      <point x="413" y="472" type="curve" smooth="yes"/>
      <point x="371" y="472"/>
      <point x="339" y="495"/>
      <point x="339" y="526" type="curve" smooth="yes"/>
      <point x="339" y="574"/>
      <point x="408" y="624"/>
      <point x="408" y="645" type="curve" smooth="yes"/>
      <point x="408" y="657"/>
      <point x="386" y="666"/>
      <point x="356" y="666" type="curve" smooth="yes"/>
      <point x="254" y="666"/>
      <point x="207" y="566"/>
      <point x="215" y="364" type="curve"/>
      <point x="239" y="410"/>
      <point x="298" y="440"/>
      <point x="364" y="440" type="curve" smooth="yes"/>
      <point x="484" y="440"/>
      <point x="556" y="361"/>
      <point x="556" y="231" type="curve" smooth="yes"/>
      <point x="556" y="102"/>
      <point x="432" y="-12"/>
    </contour>
    <contour>
      <point x="296" y="22" type="curve" smooth="yes"/>
      <point x="348" y="22"/>
      <point x="373" y="84"/>
      <point x="373" y="214" type="curve" smooth="yes"/>
      <point x="373" y="321"/>
      <point x="345" y="382"/>
      <point x="296" y="382" type="curve" smooth="yes"/>
      <point x="245" y="382"/>
      <point x="216" y="318"/>
      <point x="216" y="204" type="curve" smooth="yes"/>
      <point x="216" y="90"/>
      <point x="246" y="22"/>
    </contour>
  </outline>
</glyph>
<glyph name="seven" format="2">
  <advance width="558"/>
  <unicode hex="0037"/>
  <outline>
    <contour>
      <point x="268" y="-11" type="curve" smooth="yes"/>
      <point x="229" y="-11"/>
      <point x="169" y="9"/>
      <point x="169" y="75" type="curve" smooth="yes"/>
      <point x="169" y="190"/>
      <point x="291" y="367"/>
      <point x="424" y="532" type="curve"/>
      <point x="340" y="544"/>
      <point x="279" y="550"/>
      <point x="232" y="550" type="curve" smooth="yes"/>
      <point x="117" y="550"/>
      <point x="94" y="512"/>
      <point x="67" y="418" type="curve"/>
      <point x="37" y="419" type="line"/>
      <point x="65" y="693" type="line"/>
      <point x="95" y="693" type="line"/>
      <point x="96" y="645"/>
      <point x="108" y="618"/>
      <point x="127" y="641" type="curve" smooth="yes"/>
      <point x="153" y="674"/>
      <point x="173" y="702"/>
      <point x="223" y="702" type="curve" smooth="yes"/>
      <point x="290" y="702"/>
      <point x="449" y="650"/>
      <point x="495" y="631" type="curve"/>
      <point x="511" y="660"/>
      <point x="527" y="694"/>
      <point x="550" y="694" type="curve" smooth="yes"/>
      <point x="561" y="694.0"/>
      <point x="576.0" y="684"/>
      <point x="576" y="672" type="curve" smooth="yes"/>
      <point x="576" y="651"/>
      <point x="535" y="622"/>
      <point x="513" y="599" type="curve" smooth="yes"/>
      <point x="403" y="477"/>
      <point x="373" y="340"/>
      <point x="373" y="157" type="curve" smooth="yes"/>
      <point x="373" y="136"/>
      <point x="373" y="114"/>
      <point x="374" y="92" type="curve" smooth="yes"/>
      <point x="377" y="6"/>
      <point x="319" y="-11"/>
    </contour>
  </outline>
</glyph>
<glyph name="eight" format="2">
  <advance width="622"/>
  <unicode hex="0038"/>
  <outline>
    <contour>
      <point x="211" y="316" type="line"/>
      <point x="164" y="278"/>
      <point x="139" y="227"/>
      <point x="139" y="167" type="curve" smooth="yes"/>
      <point x="139" y="87"/>
      <point x="208" y="24"/>
      <point x="295" y="24" type="curve" smooth="yes"/>
      <point x="363" y="24"/>
      <point x="413" y="71"/>
      <point x="413" y="135" type="curve" smooth="yes"/>
      <point x="413" y="193"/>
      <point x="373" y="230"/>
      <point x="252" y="284" type="curve" smooth="yes"/>
      <point x="124" y="342"/>
      <point x="74" y="401"/>
      <point x="74" y="497" type="curve" smooth="yes"/>
      <point x="74" y="615"/>
      <point x="184" y="696"/>
      <point x="346" y="696" type="curve" smooth="yes"/>
      <point x="469" y="696"/>
      <point x="547" y="637"/>
      <point x="547" y="543" type="curve" smooth="yes"/>
      <point x="547" y="476"/>
      <point x="519" y="435"/>
      <point x="433" y="378" type="curve"/>
      <point x="403" y="393" type="line"/>
      <point x="438" y="423"/>
      <point x="460" y="476"/>
      <point x="460" y="530" type="curve" smooth="yes"/>
      <point x="460" y="609"/>
      <point x="413" y="659"/>
      <point x="337" y="659" type="curve" smooth="yes"/>
      <point x="273" y="659"/>
      <point x="228" y="617"/>
      <point x="228" y="556" type="curve" smooth="yes"/>
      <point x="228" y="502"/>
      <point x="266" y="467"/>
      <point x="373" y="421" type="curve" smooth="yes"/>
      <point x="522" y="357"/>
      <point x="575" y="302"/>
      <point x="575" y="208" type="curve" smooth="yes"/>
      <point x="575" y="77"/>
      <point x="454" y="-13"/>
      <point x="280" y="-13" type="curve" smooth="yes"/>
      <point x="148" y="-13"/>
      <point x="48" y="60"/>
      <point x="48" y="157" type="curve" smooth="yes"/>
      <point x="48" y="232"/>
      <point x="85" y="280"/>
      <point x="184" y="333" type="curve"/>
    </contour>
  </outline>
</glyph>
<glyph name="nine" format="2">
  <advance width="584"/>
  <unicode hex="0039"/>
  <outline>
    <contour>
      <point x="243" y="-12" type="curve" smooth="yes"/>
      <point x="136" y="-12"/>
      <point x="71" y="34"/>
      <point x="71" y="111" type="curve" smooth="yes"/>
      <point x="71" y="175"/>
      <point x="115" y="218"/>
      <point x="178" y="218" type="curve" smooth="yes"/>
      <point x="219" y="218"/>
      <point x="252" y="193"/>
      <point x="252" y="162" type="curve" smooth="yes"/>
      <point x="252" y="121"/>
      <point x="182" y="64"/>
      <point x="182" y="45" type="curve" smooth="yes"/>
      <point x="182" y="31"/>
      <point x="197" y="24"/>
      <point x="228" y="24" type="curve" smooth="yes"/>
      <point x="331" y="24"/>
      <point x="378" y="124"/>
      <point x="369" y="326" type="curve"/>
      <point x="345" y="280"/>
      <point x="286" y="250"/>
      <point x="220" y="250" type="curve" smooth="yes"/>
      <point x="100" y="250"/>
      <point x="28" y="329"/>
      <point x="28" y="459" type="curve" smooth="yes"/>
      <point x="28" y="588"/>
      <point x="152" y="702"/>
      <point x="292" y="702" type="curve" smooth="yes"/>
      <point x="447" y="702"/>
      <point x="554" y="574"/>
      <point x="554" y="388" type="curve" smooth="yes"/>
      <point x="554" y="153"/>
      <point x="426" y="-12"/>
    </contour>
    <contour>
      <point x="288" y="308" type="curve" smooth="yes"/>
      <point x="339" y="308"/>
      <point x="368" y="372"/>
      <point x="368" y="486" type="curve" smooth="yes"/>
      <point x="368" y="600"/>
      <point x="338" y="668"/>
      <point x="288" y="668" type="curve" smooth="yes"/>
      <point x="236" y="668"/>
      <point x="211" y="606"/>
      <point x="211" y="476" type="curve" smooth="yes"/>
      <point x="211" y="369"/>
      <point x="239" y="308"/>
    </contour>
  </outline>
</glyph>
<glyph name="colon" format="2">
  <advance width="348"/>
  <unicode hex="003A"/>
  <outline>
    <contour>
      <point x="174" y="248" type="curve" smooth="yes"/>
      <point x="121" y="248"/>
      <point x="76" y="294"/>
      <point x="76" y="350" type="curve" smooth="yes"/>
      <point x="76" y="406"/>
      <point x="121" y="453"/>
      <point x="174" y="453" type="curve" smooth="yes"/>
      <point x="227" y="453"/>
      <point x="272" y="406"/>
      <point x="272" y="350" type="curve" smooth="yes"/>
      <point x="272" y="294"/>
      <point x="227" y="248"/>
    </contour>
    <contour>
      <point x="174" y="-12" type="curve" smooth="yes"/>
      <point x="121" y="-12"/>
      <point x="76" y="34"/>
      <point x="76" y="90" type="curve" smooth="yes"/>
      <point x="76" y="146"/>
      <point x="121" y="193"/>
      <point x="174" y="193" type="curve" smooth="yes"/>
      <point x="227" y="193"/>
      <point x="272" y="146"/>
      <point x="272" y="90" type="curve" smooth="yes"/>
      <point x="272" y="34"/>
      <point x="227" y="-12"/>
    </contour>
  </outline>
</glyph>
<glyph name="semicolon" format="2">
  <advance width="348"/>
  <unicode hex="003B"/>
  <outline>
    <contour>
      <point x="174" y="248" type="curve" smooth="yes"/>
      <point x="121" y="248"/>
      <point x="76" y="294"/>
      <point x="76" y="350" type="curve" smooth="yes"/>
      <point x="76" y="406"/>
      <point x="121" y="453"/>
      <point x="174" y="453" type="curve" smooth="yes"/>
      <point x="227" y="453"/>
      <point x="272" y="406"/>
      <point x="272" y="350" type="curve" smooth="yes"/>
      <point x="272" y="294"/>
      <point x="227" y="248"/>
    </contour>
    <contour>
      <point x="61" y="-135" type="curve"/>
      <point x="52" y="-101" type="line"/>
      <point x="114" y="-82"/>
      <point x="194" y="-44"/>
      <point x="194" y="0" type="curve" smooth="yes"/>
      <point x="194" y="26"/>
      <point x="74" y="9"/>
      <point x="74" y="103" type="curve" smooth="yes"/>
      <point x="74" y="147"/>
      <point x="112" y="193"/>
      <point x="175" y="193" type="curve" smooth="yes"/>
      <point x="231" y="193"/>
      <point x="282" y="147"/>
      <point x="282" y="52" type="curve" smooth="yes"/>
      <point x="282" y="-31"/>
      <point x="192" y="-103"/>
    </contour>
  </outline>
</glyph>
<glyph name="less" format="2">
  <advance width="534"/>
  <unicode hex="003C"/>
  <outline>
    <contour>
      <point x="432" y="106" type="line"/>
      <point x="85" y="284" type="line"/>
      <point x="85" y="356" type="line"/>
      <point x="432" y="534" type="line"/>
      <point x="432" y="474" type="line"/>
      <point x="130" y="320" type="line"/>
      <point x="432" y="165" type="line"/>
    </contour>
  </outline>
</glyph>
<glyph name="equal" format="2">
  <advance width="534"/>
  <unicode hex="003D"/>
  <outline>
    <contour>
      <point x="82" y="354" type="line"/>
      <point x="82" y="406" type="line"/>
      <point x="452" y="406" type="line"/>
      <point x="452" y="354" type="line"/>
    </contour>
    <contour>
      <point x="82" y="214" type="line"/>
      <point x="82" y="266" type="line"/>
      <point x="452" y="266" type="line"/>
      <point x="452" y="214" type="line"/>
    </contour>
  </outline>
</glyph>
<glyph name="greater" format="2">
  <advance width="534"/>
  <unicode hex="003E"/>
  <outline>
    <contour>
      <point x="102" y="106" type="line"/>
      <point x="102" y="166" type="line"/>
      <point x="404" y="320" type="line"/>
      <point x="102" y="475" type="line"/>
      <point x="102" y="534" type="line"/>
      <point x="449" y="356" type="line"/>
      <point x="449" y="284" type="line"/>
    </contour>
  </outline>
</glyph>
<glyph name="question" format="2">
  <advance width="465"/>
  <unicode hex="003F"/>
  <outline>
    <contour>
      <point x="173" y="200" type="line"/>
      <point x="173" y="394" type="line"/>
      <point x="261" y="383"/>
      <point x="319" y="438"/>
      <point x="319" y="532" type="curve" smooth="yes"/>
      <point x="319" y="616"/>
      <point x="259" y="667"/>
      <point x="159" y="667" type="curve" smooth="yes"/>
      <point x="137" y="667"/>
      <point x="124" y="660"/>
      <point x="124" y="647" type="curve" smooth="yes"/>
      <point x="124" y="622"/>
      <point x="192" y="597"/>
      <point x="192" y="546" type="curve" smooth="yes"/>
      <point x="192" y="507"/>
      <point x="160" y="476"/>
      <point x="120" y="476" type="curve" smooth="yes"/>
      <point x="67" y="476"/>
      <point x="30" y="517"/>
      <point x="30" y="578" type="curve" smooth="yes"/>
      <point x="30" y="652"/>
      <point x="98" y="702"/>
      <point x="198" y="702" type="curve" smooth="yes"/>
      <point x="350" y="702"/>
      <point x="451" y="619"/>
      <point x="451" y="494" type="curve" smooth="yes"/>
      <point x="451" y="363"/>
      <point x="357" y="267"/>
      <point x="211" y="248" type="curve"/>
      <point x="211" y="200" type="line"/>
    </contour>
    <contour>
      <point x="189" y="-11" type="curve" smooth="yes"/>
      <point x="144" y="-11"/>
      <point x="107" y="28"/>
      <point x="107" y="75" type="curve" smooth="yes"/>
      <point x="107" y="122"/>
      <point x="144" y="161"/>
      <point x="189" y="161" type="curve" smooth="yes"/>
      <point x="234" y="161"/>
      <point x="271" y="122"/>
      <point x="271" y="75" type="curve" smooth="yes"/>
      <point x="271" y="28"/>
      <point x="234" y="-11"/>
    </contour>
  </outline>
</glyph>
<glyph name="at" format="2">
  <advance width="960"/>
  <unicode hex="0040"/>
  <outline>
    <contour>
      <point x="456" y="-139" type="curve" smooth="yes"/>
      <point x="245" y="-139"/>
      <point x="36" y="-20"/>
      <point x="36" y="262" type="curve" smooth="yes"/>
      <point x="36" y="494"/>
      <point x="222" y="701"/>
      <point x="496" y="701" type="curve" smooth="yes"/>
      <point x="766" y="701"/>
      <point x="906" y="527"/>
      <point x="906" y="337" type="curve" smooth="yes"/>
      <point x="906" y="119"/>
      <point x="800" y="52"/>
      <point x="696" y="52" type="curve" smooth="yes"/>
      <point x="632" y="52"/>
      <point x="563" y="86"/>
      <point x="553" y="157" type="curve"/>
      <point x="540" y="157" type="line"/>
      <point x="522" y="118"/>
      <point x="489" y="52"/>
      <point x="409" y="52" type="curve" smooth="yes"/>
      <point x="335" y="52"/>
      <point x="272" y="124"/>
      <point x="272" y="220" type="curve" smooth="yes"/>
      <point x="272" y="347"/>
      <point x="372" y="492"/>
      <point x="511" y="492" type="curve" smooth="yes"/>
      <point x="554" y="492"/>
      <point x="580" y="466"/>
      <point x="596" y="440" type="curve"/>
      <point x="612" y="483" type="line"/>
      <point x="750" y="483" type="line"/>
      <point x="690" y="195" type="line" smooth="yes"/>
      <point x="675" y="121"/>
      <point x="686" y="100"/>
      <point x="733" y="100" type="curve" smooth="yes"/>
      <point x="822" y="100"/>
      <point x="865" y="191"/>
      <point x="865" y="335" type="curve" smooth="yes"/>
      <point x="865" y="511"/>
      <point x="740" y="656"/>
      <point x="528" y="656" type="curve" smooth="yes"/>
      <point x="332" y="656"/>
      <point x="175" y="522"/>
      <point x="175" y="284" type="curve" smooth="yes"/>
      <point x="175" y="13"/>
      <point x="336" y="-82"/>
      <point x="508" y="-82" type="curve" smooth="yes"/>
      <point x="598" y="-82"/>
      <point x="691" y="-53"/>
      <point x="765" y="-8" type="curve"/>
      <point x="783" y="-29" type="line"/>
      <point x="699" y="-100"/>
      <point x="577" y="-139"/>
    </contour>
    <contour>
      <point x="454" y="96" type="curve" smooth="yes"/>
      <point x="522" y="96"/>
      <point x="575" y="302"/>
      <point x="575" y="375" type="curve" smooth="yes"/>
      <point x="575" y="433"/>
      <point x="567" y="454"/>
      <point x="542" y="454" type="curve" smooth="yes"/>
      <point x="484" y="454"/>
      <point x="427" y="278"/>
      <point x="427" y="154" type="curve" smooth="yes"/>
      <point x="427" y="122"/>
      <point x="433" y="96"/>
    </contour>
  </outline>
</glyph>
<glyph name="A" format="2">
  <advance width="720"/>
  <unicode hex="0041"/>
  <outline>
    <contour>
      <point x="9" y="0" type="line"/>
      <point x="9" y="36" type="line"/>
      <point x="47" y="41"/>
      <point x="57" y="51"/>
      <point x="80" y="111" type="curve" smooth="yes"/>
      <point x="314" y="705" type="line"/>
      <point x="353" y="705" type="line"/>
      <point x="637" y="92" type="line" smooth="yes"/>
      <point x="659" y="44"/>
      <point x="663" y="40"/>
      <point x="686" y="38" type="curve" smooth="yes"/>
      <point x="711" y="36" type="line"/>
      <point x="711" y="0" type="line"/>
      <point x="349" y="0" type="line"/>
      <point x="349" y="36" type="line"/>
      <point x="373" y="37" type="line" smooth="yes"/>
      <point x="451" y="40"/>
      <point x="459" y="48"/>
      <point x="436" y="98" type="curve" smooth="yes"/>
      <point x="265" y="466" type="line"/>
      <point x="130" y="120" type="line" smooth="yes"/>
      <point x="107" y="60"/>
      <point x="115" y="38"/>
      <point x="162" y="37" type="curve" smooth="yes"/>
      <point x="192" y="36" type="line"/>
      <point x="192" y="0" type="line"/>
    </contour>
    <contour>
      <point x="260" y="264" type="line"/>
      <point x="260" y="226" type="line"/>
      <point x="150" y="226" type="line"/>
      <point x="166" y="264" type="line"/>
    </contour>
    <contour>
      <point x="439" y="264" type="line"/>
      <point x="458" y="226" type="line"/>
      <point x="260" y="226" type="line"/>
      <point x="260" y="264" type="line"/>
    </contour>
  </outline>
</glyph>
<glyph name="B" format="2">
  <advance width="680"/>
  <unicode hex="0042"/>
  <outline>
    <contour>
      <point x="29" y="0" type="line"/>
      <point x="29" y="36" type="line"/>
      <point x="42" y="36" type="line" smooth="yes"/>
      <point x="85" y="36"/>
      <point x="94" y="45"/>
      <point x="94" y="91" type="curve" smooth="yes"/>
      <point x="94" y="608" type="line" smooth="yes"/>
      <point x="94" y="642"/>
      <point x="81" y="653"/>
      <point x="42" y="653" type="curve" smooth="yes"/>
      <point x="29" y="653" type="line"/>
      <point x="29" y="689" type="line"/>
      <point x="369" y="689" type="line" smooth="yes"/>
      <point x="520" y="689"/>
      <point x="621" y="619"/>
      <point x="621" y="513" type="curve" smooth="yes"/>
      <point x="621" y="433"/>
      <point x="550" y="376"/>
      <point x="429" y="359" type="curve"/>
      <point x="592" y="323"/>
      <point x="648" y="278"/>
      <point x="648" y="181" type="curve" smooth="yes"/>
      <point x="648" y="70"/>
      <point x="550" y="0"/>
      <point x="396" y="0" type="curve" smooth="yes"/>
    </contour>
    <contour>
      <point x="243" y="372" type="line"/>
      <point x="318" y="372" type="line" smooth="yes"/>
      <point x="391" y="372"/>
      <point x="425" y="414"/>
      <point x="425" y="506" type="curve" smooth="yes"/>
      <point x="425" y="610"/>
      <point x="402" y="654"/>
      <point x="346" y="654" type="curve" smooth="yes"/>
      <point x="322" y="654" type="line" smooth="yes"/>
      <point x="291" y="654"/>
      <point x="280" y="645"/>
      <point x="280" y="622" type="curve" smooth="yes"/>
      <point x="280" y="82" type="line" smooth="yes"/>
      <point x="280" y="45"/>
      <point x="293" y="36"/>
      <point x="343" y="36" type="curve" smooth="yes"/>
      <point x="418" y="36"/>
      <point x="443" y="79"/>
      <point x="443.0" y="180" type="curve" smooth="yes"/>
      <point x="443" y="248"/>
      <point x="431" y="289"/>
      <point x="410" y="314" type="curve" smooth="yes"/>
      <point x="393" y="333"/>
      <point x="375" y="338"/>
      <point x="323" y="338" type="curve" smooth="yes"/>
      <point x="243" y="338" type="line"/>
    </contour>
  </outline>
</glyph>
<glyph name="C" format="2">
  <advance width="731"/>
  <unicode hex="0043"/>
  <outline>
    <contour>
      <point x="404" y="-12" type="curve" smooth="yes"/>
      <point x="185" y="-12"/>
      <point x="26" y="138"/>
      <point x="26" y="345" type="curve" smooth="yes"/>
      <point x="26" y="544"/>
      <point x="200" y="702"/>
      <point x="417" y="702" type="curve" smooth="yes"/>
      <point x="531" y="702"/>
      <point x="589" y="646"/>
      <point x="614" y="646" type="curve" smooth="yes"/>
      <point x="631" y="646"/>
      <point x="647" y="661"/>
      <point x="667" y="693" type="curve"/>
      <point x="693" y="693" type="line"/>
      <point x="693" y="455" type="line"/>
      <point x="664" y="455" type="line"/>
      <point x="623" y="579"/>
      <point x="526" y="667"/>
      <point x="431" y="667" type="curve" smooth="yes"/>
      <point x="304" y="667"/>
      <point x="239" y="559"/>
      <point x="239" y="346" type="curve" smooth="yes"/>
      <point x="239" y="159"/>
      <point x="328" y="36"/>
      <point x="465" y="36" type="curve" smooth="yes"/>
      <point x="566" y="36"/>
      <point x="642" y="98"/>
      <point x="671" y="204" type="curve"/>
      <point x="705" y="197" type="line"/>
      <point x="666" y="56"/>
      <point x="568" y="-12"/>
    </contour>
  </outline>
</glyph>
<glyph name="D" format="2">
  <advance width="798"/>
  <unicode hex="0044"/>
  <outline>
    <contour>
      <point x="29" y="0" type="line"/>
      <point x="29" y="36" type="line"/>
      <point x="43" y="36" type="line" smooth="yes"/>
      <point x="87" y="36"/>
      <point x="94" y="44"/>
      <point x="94" y="90" type="curve" smooth="yes"/>
      <point x="94" y="599" type="line" smooth="yes"/>
      <point x="94" y="642"/>
      <point x="85" y="653"/>
      <point x="47" y="653" type="curve" smooth="yes"/>
      <point x="29" y="653" type="line"/>
      <point x="29" y="689" type="line"/>
      <point x="389" y="689" type="line" smooth="yes"/>
      <point x="618.0" y="689.0"/>
      <point x="775" y="553"/>
      <point x="775" y="351" type="curve" smooth="yes"/>
      <point x="775" y="157"/>
      <point x="605" y="0"/>
      <point x="395" y="0" type="curve" smooth="yes"/>
    </contour>
    <contour>
      <point x="338" y="35" type="curve" smooth="yes"/>
      <point x="400" y="35" type="line" smooth="yes"/>
      <point x="521" y="35"/>
      <point x="570" y="125"/>
      <point x="570" y="347" type="curve" smooth="yes"/>
      <point x="570" y="539"/>
      <point x="500" y="654"/>
      <point x="382" y="654" type="curve" smooth="yes"/>
      <point x="316" y="654" type="line" smooth="yes"/>
      <point x="295" y="654"/>
      <point x="285" y="644"/>
      <point x="285" y="623" type="curve" smooth="yes"/>
      <point x="285" y="81" type="line" smooth="yes"/>
      <point x="285" y="48"/>
      <point x="300" y="35"/>
    </contour>
  </outline>
</glyph>
<glyph name="E" format="2">
  <advance width="700"/>
  <unicode hex="0045"/>
  <outline>
    <contour>
      <point x="235" y="361" type="line"/>
      <point x="235" y="326" type="line"/>
      <point x="346" y="325" type="line" smooth="yes"/>
      <point x="424" y="324"/>
      <point x="434" y="310"/>
      <point x="453" y="184" type="curve"/>
      <point x="481" y="184" type="line"/>
      <point x="481" y="502" type="line"/>
      <point x="453" y="502" type="line"/>
      <point x="428" y="382"/>
      <point x="414" y="363"/>
      <point x="347" y="362" type="curve" smooth="yes"/>
    </contour>
    <contour>
      <point x="285" y="82" type="curve" smooth="yes"/>
      <point x="285" y="617" type="line" smooth="yes"/>
      <point x="285" y="647"/>
      <point x="295" y="653"/>
      <point x="341" y="653" type="curve" smooth="yes"/>
      <point x="415" y="653" type="line" smooth="yes"/>
      <point x="471" y="653"/>
      <point x="570" y="553"/>
      <point x="615" y="452" type="curve"/>
      <point x="641" y="456" type="line"/>
      <point x="605" y="689" type="line"/>
      <point x="29" y="689" type="line"/>
      <point x="29" y="653" type="line"/>
      <point x="42" y="653" type="line" smooth="yes"/>
      <point x="81" y="653"/>
      <point x="94" y="642"/>
      <point x="94" y="608" type="curve" smooth="yes"/>
      <point x="94" y="91" type="line" smooth="yes"/>
      <point x="94" y="45"/>
      <point x="85" y="36"/>
      <point x="42" y="36" type="curve" smooth="yes"/>
      <point x="29" y="36" type="line"/>
      <point x="29" y="0" type="line"/>
      <point x="631" y="0" type="line"/>
      <point x="669" y="228" type="line"/>
      <point x="642" y="230" type="line"/>
      <point x="607" y="165"/>
      <point x="478" y="40"/>
      <point x="445" y="39" type="curve" smooth="yes"/>
      <point x="385" y="36" type="line" smooth="yes"/>
      <point x="311" y="32"/>
      <point x="285" y="44"/>
    </contour>
  </outline>
</glyph>
<glyph name="F" format="2">
  <advance width="700"/>
  <unicode hex="0046"/>
  <outline>
    <contour>
      <point x="239" y="359" type="line"/>
      <point x="364" y="362" type="line" smooth="yes"/>
      <point x="433" y="364"/>
      <point x="450" y="386"/>
      <point x="474" y="502" type="curve"/>
      <point x="502" y="502" type="line"/>
      <point x="502" y="184" type="line"/>
      <point x="474" y="184" type="line"/>
      <point x="456" y="307"/>
      <point x="442" y="324"/>
      <point x="363" y="326" type="curve" smooth="yes"/>
      <point x="239" y="329" type="line"/>
    </contour>
    <contour>
      <point x="285" y="82" type="line" smooth="yes"/>
      <point x="285" y="50"/>
      <point x="303" y="36"/>
      <point x="345" y="36" type="curve" smooth="yes"/>
      <point x="369" y="36" type="line"/>
      <point x="369" y="0" type="line"/>
      <point x="29" y="0" type="line"/>
      <point x="29" y="36" type="line"/>
      <point x="42" y="36" type="line" smooth="yes"/>
      <point x="85" y="36"/>
      <point x="94" y="45"/>
      <point x="94" y="91" type="curve" smooth="yes"/>
      <point x="94" y="608" type="line" smooth="yes"/>
      <point x="94" y="642"/>
      <point x="81" y="653"/>
      <point x="42" y="653" type="curve" smooth="yes"/>
      <point x="29" y="653" type="line"/>
      <point x="29" y="689" type="line"/>
      <point x="635" y="689" type="line"/>
      <point x="669" y="466" type="line"/>
      <point x="643" y="462" type="line"/>
      <point x="587" y="577"/>
      <point x="496" y="653"/>
      <point x="414" y="653" type="curve" smooth="yes"/>
      <point x="341" y="653" type="line" smooth="yes"/>
      <point x="295" y="653"/>
      <point x="285" y="647"/>
      <point x="285" y="617" type="curve" smooth="yes"/>
    </contour>
  </outline>
</glyph>
<glyph name="G" format="2">
  <advance width="771"/>
  <unicode hex="0047"/>
  <outline>
    <contour>
      <point x="388" y="-12" type="curve" smooth="yes"/>
      <point x="190" y="-12"/>
      <point x="26" y="149"/>
      <point x="26" y="345" type="curve" smooth="yes"/>
      <point x="26" y="551"/>
      <point x="185" y="702"/>
      <point x="402" y="702" type="curve" smooth="yes"/>
      <point x="489" y="702"/>
      <point x="575" y="654"/>
      <point x="595" y="654" type="curve" smooth="yes"/>
      <point x="614" y="654"/>
      <point x="633" y="667"/>
      <point x="652" y="693" type="curve"/>
      <point x="679" y="693" type="line"/>
      <point x="679" y="455" type="line"/>
      <point x="650" y="455" type="line"/>
      <point x="596" y="583"/>
      <point x="498" y="667"/>
      <point x="403" y="667" type="curve" smooth="yes"/>
      <point x="294" y="667"/>
      <point x="238" y="569"/>
      <point x="238" y="380" type="curve" smooth="yes"/>
      <point x="238" y="162"/>
      <point x="305" y="32"/>
      <point x="418" y="32" type="curve" smooth="yes"/>
      <point x="481" y="32"/>
      <point x="508" y="59"/>
      <point x="508" y="122" type="curve" smooth="yes"/>
      <point x="508" y="243" type="line" smooth="yes"/>
      <point x="508" y="277"/>
      <point x="495" y="288"/>
      <point x="456" y="288" type="curve" smooth="yes"/>
      <point x="433" y="288" type="line"/>
      <point x="433" y="324" type="line"/>
      <point x="749" y="324" type="line"/>
      <point x="749" y="288" type="line"/>
      <point x="732" y="288" type="line" smooth="yes"/>
      <point x="697" y="288"/>
      <point x="687" y="278"/>
      <point x="687" y="242" type="curve" smooth="yes"/>
      <point x="687" y="0" type="line"/>
      <point x="662" y="0" type="line"/>
      <point x="650" y="29"/>
      <point x="626" y="52"/>
      <point x="607" y="52" type="curve" smooth="yes"/>
      <point x="548" y="52"/>
      <point x="517" y="-12"/>
    </contour>
  </outline>
</glyph>
<glyph name="H" format="2">
  <advance width="796"/>
  <unicode hex="0048"/>
  <outline>
    <contour>
      <point x="285" y="82" type="curve" smooth="yes"/>
      <point x="285" y="607" type="line" smooth="yes"/>
      <point x="285" y="643"/>
      <point x="296" y="653"/>
      <point x="335" y="653" type="curve" smooth="yes"/>
      <point x="352" y="653" type="line"/>
      <point x="352" y="689" type="line"/>
      <point x="29" y="689" type="line"/>
      <point x="29" y="653" type="line"/>
      <point x="42" y="653" type="line" smooth="yes"/>
      <point x="81" y="653"/>
      <point x="94" y="642"/>
      <point x="94" y="608" type="curve" smooth="yes"/>
      <point x="94" y="81" type="line" smooth="yes"/>
      <point x="94" y="44"/>
      <point x="84" y="36"/>
      <point x="42" y="36" type="curve" smooth="yes"/>
      <point x="29" y="36" type="line"/>
      <point x="29" y="0" type="line"/>
      <point x="352" y="0" type="line"/>
      <point x="352" y="36" type="line"/>
      <point x="335" y="36" type="line" smooth="yes"/>
      <point x="297" y="36"/>
      <point x="285" y="47"/>
    </contour>
    <contour>
      <point x="511" y="607" type="curve" smooth="yes"/>
      <point x="511" y="82" type="line" smooth="yes"/>
      <point x="511" y="43"/>
      <point x="504" y="36"/>
      <point x="461" y="36" type="curve" smooth="yes"/>
      <point x="444" y="36" type="line"/>
      <point x="444" y="0" type="line"/>
      <point x="767" y="0" type="line"/>
      <point x="767" y="36" type="line"/>
      <point x="754" y="36" type="line" smooth="yes"/>
      <point x="710" y="36"/>
      <point x="702" y="43"/>
      <point x="702" y="81" type="curve" smooth="yes"/>
      <point x="702" y="608" type="line" smooth="yes"/>
      <point x="702" y="639"/>
      <point x="718" y="653"/>
      <point x="754" y="653" type="curve" smooth="yes"/>
      <point x="767" y="653" type="line"/>
      <point x="767" y="689" type="line"/>
      <point x="444" y="689" type="line"/>
      <point x="444" y="653" type="line"/>
      <point x="461" y="653" type="line" smooth="yes"/>
      <point x="498" y="653"/>
      <point x="511" y="641"/>
    </contour>
    <contour>
      <point x="250" y="324" type="line"/>
      <point x="546" y="324" type="line"/>
      <point x="546" y="361" type="line"/>
      <point x="250" y="361" type="line"/>
    </contour>
  </outline>
</glyph>
<glyph name="I" format="2">
  <advance width="396"/>
  <unicode hex="0049"/>
  <outline>
    <contour>
      <point x="29" y="0" type="line"/>
      <point x="29" y="36" type="line"/>
      <point x="52" y="36" type="line" smooth="yes"/>
      <point x="94" y="36"/>
      <point x="104" y="44"/>
      <point x="104" y="81" type="curve" smooth="yes"/>
      <point x="104" y="608" type="line" smooth="yes"/>
      <point x="104" y="642"/>
      <point x="91" y="653"/>
      <point x="52" y="653" type="curve" smooth="yes"/>
      <point x="29" y="653" type="line"/>
      <point x="29" y="689" type="line"/>
      <point x="370" y="689" type="line"/>
      <point x="370" y="653" type="line"/>
      <point x="343" y="653" type="line" smooth="yes"/>
      <point x="306" y="653"/>
      <point x="295" y="642"/>
      <point x="295" y="607" type="curve" smooth="yes"/>
      <point x="295" y="82" type="line" smooth="yes"/>
      <point x="295" y="47"/>
      <point x="307" y="36"/>
      <point x="343" y="36" type="curve" smooth="yes"/>
      <point x="370" y="36" type="line"/>
      <point x="370" y="0" type="line"/>
    </contour>
  </outline>
</glyph>
<glyph name="J" format="2">
  <advance width="507"/>
  <unicode hex="004A"/>
  <outline>
    <contour>
      <point x="173" y="-22" type="curve" smooth="yes"/>
      <point x="78" y="-22"/>
      <point x="13" y="32"/>
      <point x="13" y="110" type="curve" smooth="yes"/>
      <point x="13" y="179"/>
      <point x="53" y="224"/>
      <point x="116" y="224" type="curve" smooth="yes"/>
      <point x="158" y="224"/>
      <point x="186" y="197"/>
      <point x="186" y="155" type="curve" smooth="yes"/>
      <point x="186" y="72"/>
      <point x="83" y="98"/>
      <point x="83" y="49" type="curve" smooth="yes"/>
      <point x="83" y="27"/>
      <point x="105" y="14"/>
      <point x="142" y="14" type="curve" smooth="yes"/>
      <point x="206" y="14"/>
      <point x="233" y="50"/>
      <point x="233" y="135" type="curve" smooth="yes"/>
      <point x="233" y="608" type="line" smooth="yes"/>
      <point x="233" y="643"/>
      <point x="220" y="653"/>
      <point x="172" y="653" type="curve" smooth="yes"/>
      <point x="149" y="653" type="line"/>
      <point x="149" y="689" type="line"/>
      <point x="492" y="689" type="line"/>
      <point x="492" y="653" type="line"/>
      <point x="465" y="653" type="line" smooth="yes"/>
      <point x="435" y="653"/>
      <point x="424" y="641"/>
      <point x="424" y="607" type="curve" smooth="yes"/>
      <point x="424" y="170" type="line" smooth="yes"/>
      <point x="424" y="54"/>
      <point x="324" y="-22"/>
    </contour>
  </outline>
</glyph>
<glyph name="K" format="2">
  <advance width="811"/>
  <unicode hex="004B"/>
  <outline>
    <contour>
      <point x="300" y="82" type="curve" smooth="yes"/>
      <point x="300" y="607" type="line" smooth="yes"/>
      <point x="300" y="644"/>
      <point x="314" y="653"/>
      <point x="373" y="653" type="curve" smooth="yes"/>
      <point x="387" y="653" type="line"/>
      <point x="387" y="689" type="line"/>
      <point x="29" y="689" type="line"/>
      <point x="29" y="653" type="line"/>
      <point x="42" y="653" type="line" smooth="yes"/>
      <point x="99" y="653"/>
      <point x="114" y="644"/>
      <point x="114" y="608" type="curve" smooth="yes"/>
      <point x="114" y="81" type="line" smooth="yes"/>
      <point x="114" y="43"/>
      <point x="102" y="36"/>
      <point x="42" y="36" type="curve" smooth="yes"/>
      <point x="29" y="36" type="line"/>
      <point x="29" y="0" type="line"/>
      <point x="372" y="0" type="line"/>
      <point x="372" y="36" type="line"/>
      <point x="363" y="36" type="line" smooth="yes"/>
      <point x="313" y="36"/>
      <point x="300" y="46"/>
    </contour>
    <contour>
      <point x="254" y="244" type="line"/>
      <point x="404" y="388" type="line"/>
      <point x="552" y="528" type="line" smooth="yes"/>
      <point x="668" y="637"/>
      <point x="684" y="646"/>
      <point x="772" y="653" type="curve"/>
      <point x="772" y="689" type="line"/>
      <point x="516" y="689" type="line"/>
      <point x="516" y="653" type="line"/>
      <point x="530" y="652" type="line" smooth="yes"/>
      <point x="604" y="647"/>
      <point x="602" y="632"/>
      <point x="512" y="546" type="curve" smooth="yes"/>
      <point x="254" y="300" type="line"/>
    </contour>
    <contour>
      <point x="462" y="468" type="line"/>
      <point x="322" y="337" type="line"/>
      <point x="467" y="109" type="line" smooth="yes"/>
      <point x="503" y="52"/>
      <point x="500" y="40"/>
      <point x="450" y="37" type="curve" smooth="yes"/>
      <point x="434" y="36" type="line"/>
      <point x="434" y="0" type="line"/>
      <point x="802" y="0" type="line"/>
      <point x="802" y="36" type="line"/>
      <point x="742" y="41"/>
      <point x="728" y="50"/>
      <point x="696" y="101" type="curve" smooth="yes"/>
    </contour>
  </outline>
</glyph>
<glyph name="L" format="2">
  <advance width="691"/>
  <unicode hex="004C"/>
  <outline>
    <contour>
      <point x="29" y="0" type="line"/>
      <point x="29" y="36" type="line"/>
      <point x="42" y="36" type="line" smooth="yes"/>
      <point x="85" y="36"/>
      <point x="94" y="45"/>
      <point x="94" y="91" type="curve" smooth="yes"/>
      <point x="94" y="608" type="line" smooth="yes"/>
      <point x="94" y="642"/>
      <point x="81" y="653"/>
      <point x="42" y="653" type="curve" smooth="yes"/>
      <point x="29" y="653" type="line"/>
      <point x="29" y="689" type="line"/>
      <point x="355" y="689" type="line"/>
      <point x="355" y="653" type="line"/>
      <point x="326" y="653" type="line" smooth="yes"/>
      <point x="296" y="653"/>
      <point x="285" y="644"/>
      <point x="285" y="617" type="curve" smooth="yes"/>
      <point x="285" y="92" type="line" smooth="yes"/>
      <point x="285" y="46"/>
      <point x="311" y="31"/>
      <point x="385" y="36" type="curve" smooth="yes"/>
      <point x="431" y="39" type="line" smooth="yes"/>
      <point x="459" y="41"/>
      <point x="587" y="171"/>
      <point x="639" y="250" type="curve"/>
      <point x="666" y="248" type="line"/>
      <point x="626" y="0" type="line"/>
    </contour>
  </outline>
</glyph>
<glyph name="M" format="2">
  <advance width="926"/>
  <unicode hex="004D"/>
  <outline>
    <contour>
      <point x="29" y="0" type="line"/>
      <point x="29" y="36" type="line"/>
      <point x="76" y="39"/>
      <point x="89" y="60"/>
      <point x="89" y="134" type="curve" smooth="yes"/>
      <point x="89" y="570" type="line" smooth="yes"/>
      <point x="89" y="640"/>
      <point x="84" y="648"/>
      <point x="42" y="652" type="curve" smooth="yes"/>
      <point x="29" y="653" type="line"/>
      <point x="29" y="689" type="line"/>
      <point x="293" y="689" type="line"/>
      <point x="462" y="270" type="line"/>
      <point x="622" y="689" type="line"/>
      <point x="897" y="689" type="line"/>
      <point x="897" y="653" type="line"/>
      <point x="884" y="653" type="line" smooth="yes"/>
      <point x="852" y="653"/>
      <point x="832" y="636"/>
      <point x="832" y="608" type="curve" smooth="yes"/>
      <point x="832" y="81" type="line" smooth="yes"/>
      <point x="832" y="43"/>
      <point x="840" y="36"/>
      <point x="884" y="36" type="curve" smooth="yes"/>
      <point x="897" y="36" type="line"/>
      <point x="897" y="0" type="line"/>
      <point x="571" y="0" type="line"/>
      <point x="571" y="36" type="line"/>
      <point x="588" y="36" type="line" smooth="yes"/>
      <point x="633" y="36"/>
      <point x="641" y="43"/>
      <point x="641" y="82" type="curve" smooth="yes"/>
      <point x="641" y="628" type="line"/>
      <point x="401" y="1" type="line"/>
      <point x="370" y="1" type="line"/>
      <point x="134" y="596" type="line"/>
      <point x="134" y="128" type="line" smooth="yes"/>
      <point x="134" y="60"/>
      <point x="155" y="38"/>
      <point x="219" y="36" type="curve"/>
      <point x="219" y="0" type="line"/>
    </contour>
  </outline>
</glyph>
<glyph name="N" format="2">
  <advance width="719"/>
  <unicode hex="004E"/>
  <outline>
    <contour>
      <point x="89" y="614" type="line"/>
      <point x="59" y="648"/>
      <point x="49" y="653"/>
      <point x="9" y="653" type="curve"/>
      <point x="9" y="689" type="line"/>
      <point x="256" y="689" type="line"/>
      <point x="604" y="278" type="line"/>
      <point x="604" y="561" type="line" smooth="yes"/>
      <point x="604" y="640"/>
      <point x="598" y="648"/>
      <point x="530" y="652" type="curve" smooth="yes"/>
      <point x="513" y="653" type="line"/>
      <point x="513" y="689" type="line"/>
      <point x="710" y="689" type="line"/>
      <point x="710" y="653" type="line"/>
      <point x="656" y="649"/>
      <point x="649" y="639"/>
      <point x="649" y="555" type="curve" smooth="yes"/>
      <point x="649" y="-18" type="line"/>
      <point x="617" y="-18" type="line"/>
      <point x="134" y="561" type="line"/>
      <point x="134" y="128" type="line" smooth="yes"/>
      <point x="134" y="52"/>
      <point x="140" y="44"/>
      <point x="217" y="36" type="curve"/>
      <point x="217" y="0" type="line"/>
      <point x="25" y="0" type="line"/>
      <point x="25" y="36" type="line"/>
      <point x="43" y="37" type="line" smooth="yes"/>
      <point x="84" y="39"/>
      <point x="89" y="50"/>
      <point x="89" y="134" type="curve" smooth="yes"/>
    </contour>
  </outline>
</glyph>
<glyph name="O" format="2">
  <advance width="794"/>
  <unicode hex="004F"/>
  <outline>
    <contour>
      <point x="397" y="-12" type="curve" smooth="yes"/>
      <point x="197" y="-12"/>
      <point x="26" y="153"/>
      <point x="26" y="345" type="curve" smooth="yes"/>
      <point x="26" y="537"/>
      <point x="197" y="702"/>
      <point x="397" y="702" type="curve" smooth="yes"/>
      <point x="597" y="702"/>
      <point x="768" y="537"/>
      <point x="768" y="345" type="curve" smooth="yes"/>
      <point x="768" y="153"/>
      <point x="597" y="-12"/>
    </contour>
    <contour>
      <point x="397" y="17" type="curve" smooth="yes"/>
      <point x="501" y="17"/>
      <point x="542" y="72"/>
      <point x="553" y="227" type="curve" smooth="yes"/>
      <point x="559" y="307"/>
      <point x="559" y="374"/>
      <point x="553" y="452" type="curve" smooth="yes"/>
      <point x="540" y="627"/>
      <point x="508" y="672"/>
      <point x="397" y="672" type="curve" smooth="yes"/>
      <point x="288" y="672"/>
      <point x="254" y="625"/>
      <point x="241" y="452" type="curve" smooth="yes"/>
      <point x="235" y="374"/>
      <point x="235" y="307"/>
      <point x="241" y="227" type="curve" smooth="yes"/>
      <point x="252" y="72"/>
      <point x="293" y="17"/>
    </contour>
  </outline>
</glyph>
<glyph name="P" format="2">
  <advance width="686"/>
  <unicode hex="0050"/>
  <outline>
    <contour>
      <point x="247" y="327" type="line"/>
      <point x="329" y="327" type="line" smooth="yes"/>
      <point x="431" y="327"/>
      <point x="459" y="362"/>
      <point x="459" y="489" type="curve" smooth="yes"/>
      <point x="459" y="589"/>
      <point x="419" y="654"/>
      <point x="358" y="654" type="curve" smooth="yes"/>
      <point x="335" y="654" type="line" smooth="yes"/>
      <point x="295" y="654"/>
      <point x="281" y="646"/>
      <point x="281" y="622" type="curve" smooth="yes"/>
      <point x="281" y="82" type="line" smooth="yes"/>
      <point x="281" y="50"/>
      <point x="299" y="36"/>
      <point x="341" y="36" type="curve" smooth="yes"/>
      <point x="365" y="36" type="line"/>
      <point x="365" y="0" type="line"/>
      <point x="29" y="0" type="line"/>
      <point x="29" y="36" type="line"/>
      <point x="42" y="36" type="line" smooth="yes"/>
      <point x="85" y="36"/>
      <point x="94" y="45"/>
      <point x="94" y="91" type="curve" smooth="yes"/>
      <point x="94" y="608" type="line" smooth="yes"/>
      <point x="94" y="642"/>
      <point x="81" y="653"/>
      <point x="42" y="653" type="curve" smooth="yes"/>
      <point x="29" y="653" type="line"/>
      <point x="29" y="689" type="line"/>
      <point x="390" y="689" type="line" smooth="yes"/>
      <point x="553" y="689"/>
      <point x="660" y="608"/>
      <point x="660" y="484" type="curve" smooth="yes"/>
      <point x="660" y="366"/>
      <point x="542" y="292"/>
      <point x="354" y="292" type="curve" smooth="yes"/>
      <point x="247" y="292" type="line"/>
    </contour>
  </outline>
</glyph>
<glyph name="Q" format="2">
  <advance width="794"/>
  <unicode hex="0051"/>
  <outline>
    <contour>
      <point x="397" y="672" type="curve" smooth="yes"/>
      <point x="286" y="672"/>
      <point x="250" y="623"/>
      <point x="239" y="455" type="curve" smooth="yes"/>
      <point x="234" y="370"/>
      <point x="233" y="300"/>
      <point x="237" y="226" type="curve" smooth="yes"/>
      <point x="240" y="162"/>
      <point x="251" y="106"/>
      <point x="266" y="79" type="curve"/>
      <point x="256" y="164"/>
      <point x="313" y="228"/>
      <point x="398" y="228" type="curve" smooth="yes"/>
      <point x="476" y="228"/>
      <point x="536" y="162"/>
      <point x="544" y="67" type="curve"/>
      <point x="560" y="67" type="line"/>
      <point x="584" y="-36"/>
      <point x="614" y="-76"/>
      <point x="668" y="-76" type="curve" smooth="yes"/>
      <point x="707" y="-76"/>
      <point x="721" y="-59"/>
      <point x="729" y="0" type="curve"/>
      <point x="759" y="0" type="line"/>
      <point x="753" y="-97"/>
      <point x="690" y="-154"/>
      <point x="589" y="-154" type="curve" smooth="yes"/>
      <point x="484" y="-154"/>
      <point x="420" y="-93"/>
      <point x="423" y="5" type="curve" smooth="yes"/>
      <point x="426" y="105"/>
      <point x="401" y="159"/>
      <point x="351" y="159" type="curve" smooth="yes"/>
      <point x="312" y="159"/>
      <point x="283" y="131"/>
      <point x="283" y="92" type="curve" smooth="yes"/>
      <point x="283" y="46"/>
      <point x="324" y="15"/>
      <point x="386" y="15" type="curve" smooth="yes"/>
      <point x="421" y="15"/>
      <point x="452" y="22"/>
      <point x="478" y="37" type="curve"/>
      <point x="526" y="37" type="line"/>
      <point x="539" y="73"/>
      <point x="544" y="100"/>
      <point x="553" y="184" type="curve" smooth="yes"/>
      <point x="561" y="262"/>
      <point x="562" y="364"/>
      <point x="555" y="452" type="curve" smooth="yes"/>
      <point x="542" y="626"/>
      <point x="509" y="672"/>
    </contour>
    <contour>
      <point x="768" y="158"/>
      <point x="591" y="-12"/>
      <point x="397" y="-12" type="curve" smooth="yes"/>
      <point x="197" y="-12"/>
      <point x="26" y="153"/>
      <point x="26" y="345" type="curve" smooth="yes"/>
      <point x="26" y="537"/>
      <point x="197" y="702"/>
      <point x="397" y="702" type="curve" smooth="yes"/>
      <point x="597" y="702"/>
      <point x="768" y="537"/>
      <point x="768" y="345" type="curve" smooth="yes"/>
    </contour>
  </outline>
</glyph>
<glyph name="R" format="2">
  <advance width="710"/>
  <unicode hex="0052"/>
  <outline>
    <contour>
      <point x="245" y="360" type="line"/>
      <point x="310" y="360" type="line" smooth="yes"/>
      <point x="424" y="360"/>
      <point x="453" y="389"/>
      <point x="453" y="504" type="curve" smooth="yes"/>
      <point x="453" y="601"/>
      <point x="412" y="654"/>
      <point x="336" y="654" type="curve" smooth="yes"/>
      <point x="327" y="654" type="line" smooth="yes"/>
      <point x="293" y="654"/>
      <point x="280" y="645"/>
      <point x="280" y="622" type="curve" smooth="yes"/>
      <point x="280" y="82" type="line" smooth="yes"/>
      <point x="280" y="51"/>
      <point x="291" y="36"/>
      <point x="315" y="36" type="curve" smooth="yes"/>
      <point x="339" y="36" type="line"/>
      <point x="339" y="0" type="line"/>
      <point x="29" y="0" type="line"/>
      <point x="29" y="36" type="line"/>
      <point x="42" y="36" type="line" smooth="yes"/>
      <point x="85" y="36"/>
      <point x="94" y="45"/>
      <point x="94" y="91" type="curve" smooth="yes"/>
      <point x="94" y="608" type="line" smooth="yes"/>
      <point x="94" y="642"/>
      <point x="81" y="653"/>
      <point x="42" y="653" type="curve" smooth="yes"/>
      <point x="29" y="653" type="line"/>
      <point x="29" y="689" type="line"/>
      <point x="367" y="689" type="line" smooth="yes"/>
      <point x="544" y="689"/>
      <point x="654" y="621"/>
      <point x="654" y="511" type="curve" smooth="yes"/>
      <point x="654" y="426"/>
      <point x="579" y="367"/>
      <point x="444" y="345" type="curve"/>
      <point x="541" y="317"/>
      <point x="589" y="268"/>
      <point x="599" y="186" type="curve" smooth="yes"/>
      <point x="616" y="49"/>
      <point x="617" y="45"/>
      <point x="647" y="45" type="curve" smooth="yes"/>
      <point x="677" y="45"/>
      <point x="690" y="74"/>
      <point x="694" y="149" type="curve"/>
      <point x="724" y="149" type="line"/>
      <point x="720" y="22"/>
      <point x="685" y="-14"/>
      <point x="562" y="-14" type="curve" smooth="yes"/>
      <point x="469" y="-14"/>
      <point x="414" y="28"/>
      <point x="409" y="102" type="curve" smooth="yes"/>
      <point x="399" y="273" type="line" smooth="yes"/>
      <point x="396" y="321"/>
      <point x="390" y="327"/>
      <point x="343" y="327" type="curve" smooth="yes"/>
      <point x="245" y="327" type="line"/>
    </contour>
  </outline>
</glyph>
<glyph name="S" format="2">
  <advance width="663"/>
  <unicode hex="0053"/>
  <outline>
    <contour>
      <point x="358" y="-12" type="curve" smooth="yes"/>
      <point x="245" y="-12"/>
      <point x="192" y="53"/>
      <point x="164" y="53" type="curve" smooth="yes"/>
      <point x="145" y="53"/>
      <point x="115" y="30"/>
      <point x="95" y="0" type="curve"/>
      <point x="68" y="0" type="line"/>
      <point x="68" y="225" type="line"/>
      <point x="95" y="225" type="line"/>
      <point x="163" y="103"/>
      <point x="259" y="28"/>
      <point x="347" y="28" type="curve" smooth="yes"/>
      <point x="422" y="28"/>
      <point x="465" y="67"/>
      <point x="465" y="136" type="curve" smooth="yes"/>
      <point x="465" y="204"/>
      <point x="436" y="228"/>
      <point x="312" y="264" type="curve" smooth="yes"/>
      <point x="126" y="318"/>
      <point x="71" y="372"/>
      <point x="71" y="498" type="curve" smooth="yes"/>
      <point x="71" y="618"/>
      <point x="178" y="702"/>
      <point x="332" y="702" type="curve" smooth="yes"/>
      <point x="419" y="702"/>
      <point x="483" y="651"/>
      <point x="508" y="651" type="curve" smooth="yes"/>
      <point x="527" y="651"/>
      <point x="545" y="664"/>
      <point x="564" y="693" type="curve"/>
      <point x="586" y="693" type="line"/>
      <point x="586" y="489" type="line"/>
      <point x="559" y="489" type="line"/>
      <point x="495" y="608"/>
      <point x="428" y="662"/>
      <point x="346" y="662" type="curve" smooth="yes"/>
      <point x="279" y="662"/>
      <point x="234" y="624"/>
      <point x="234" y="566" type="curve" smooth="yes"/>
      <point x="234" y="490"/>
      <point x="268" y="461"/>
      <point x="402" y="422" type="curve" smooth="yes"/>
      <point x="576" y="371"/>
      <point x="628" y="320"/>
      <point x="628" y="200" type="curve" smooth="yes"/>
      <point x="628" y="73"/>
      <point x="520" y="-12"/>
    </contour>
  </outline>
</glyph>
<glyph name="T" format="2">
  <advance width="708"/>
  <unicode hex="0054"/>
  <outline>
    <contour>
      <point x="184" y="0" type="line"/>
      <point x="184" y="36" type="line"/>
      <point x="207" y="36" type="line" smooth="yes"/>
      <point x="249" y="36"/>
      <point x="259" y="44"/>
      <point x="259" y="81" type="curve" smooth="yes"/>
      <point x="259" y="619" type="line" smooth="yes"/>
      <point x="259" y="645"/>
      <point x="253" y="653"/>
      <point x="231" y="653" type="curve" smooth="yes"/>
      <point x="221" y="653" type="line" smooth="yes"/>
      <point x="175" y="653"/>
      <point x="115" y="588"/>
      <point x="41" y="457" type="curve"/>
      <point x="15" y="461" type="line"/>
      <point x="48" y="689" type="line"/>
      <point x="660" y="689" type="line"/>
      <point x="693" y="461" type="line"/>
      <point x="667" y="457" type="line"/>
      <point x="594" y="588"/>
      <point x="535" y="653"/>
      <point x="488" y="653" type="curve" smooth="yes"/>
      <point x="480" y="653" type="line" smooth="yes"/>
      <point x="455" y="653"/>
      <point x="450" y="647"/>
      <point x="450" y="620" type="curve" smooth="yes"/>
      <point x="450" y="82" type="line" smooth="yes"/>
      <point x="450" y="47"/>
      <point x="462" y="36"/>
      <point x="498" y="36" type="curve" smooth="yes"/>
      <point x="525" y="36" type="line"/>
      <point x="525" y="0" type="line"/>
    </contour>
  </outline>
</glyph>
<glyph name="U" format="2">
  <advance width="741"/>
  <unicode hex="0055"/>
  <outline>
    <contour>
      <point x="379" y="-11" type="curve" smooth="yes"/>
      <point x="197" y="-11"/>
      <point x="84" y="71"/>
      <point x="84" y="204" type="curve" smooth="yes"/>
      <point x="84" y="605" type="line" smooth="yes"/>
      <point x="84.0" y="640.0"/>
      <point x="71" y="653"/>
      <point x="38" y="653" type="curve" smooth="yes"/>
      <point x="25" y="653" type="line"/>
      <point x="25" y="689" type="line"/>
      <point x="360" y="689" type="line"/>
      <point x="360" y="653" type="line"/>
      <point x="313" y="653" type="line" smooth="yes"/>
      <point x="285" y="653"/>
      <point x="275" y="639"/>
      <point x="275" y="601" type="curve" smooth="yes"/>
      <point x="275" y="204" type="line" smooth="yes"/>
      <point x="275" y="102"/>
      <point x="331" y="48"/>
      <point x="438" y="48" type="curve" smooth="yes"/>
      <point x="557" y="48"/>
      <point x="625" y="121"/>
      <point x="625" y="250" type="curve" smooth="yes"/>
      <point x="625" y="556" type="line" smooth="yes"/>
      <point x="625" y="642"/>
      <point x="617" y="653"/>
      <point x="553" y="653" type="curve" smooth="yes"/>
      <point x="535" y="653" type="line"/>
      <point x="535" y="689" type="line"/>
      <point x="716" y="689" type="line"/>
      <point x="716" y="652" type="line"/>
      <point x="674" y="650"/>
      <point x="670" y="642"/>
      <point x="670" y="555" type="curve" smooth="yes"/>
      <point x="670" y="240" type="line" smooth="yes"/>
      <point x="670" y="74"/>
      <point x="572" y="-11"/>
    </contour>
  </outline>
</glyph>
<glyph name="V" format="2">
  <advance width="720"/>
  <unicode hex="0056"/>
  <outline>
    <contour>
      <point x="367" y="-16" type="line"/>
      <point x="83" y="597" type="line" smooth="yes"/>
      <point x="61" y="645"/>
      <point x="57" y="649"/>
      <point x="34" y="651" type="curve" smooth="yes"/>
      <point x="9" y="653" type="line"/>
      <point x="9" y="689" type="line"/>
      <point x="371" y="689" type="line"/>
      <point x="371" y="653" type="line"/>
      <point x="347" y="652" type="line" smooth="yes"/>
      <point x="269" y="649"/>
      <point x="261" y="641"/>
      <point x="284" y="591" type="curve" smooth="yes"/>
      <point x="455" y="222" type="line"/>
      <point x="590" y="569" type="line" smooth="yes"/>
      <point x="616" y="635"/>
      <point x="610" y="650"/>
      <point x="558" y="652" type="curve" smooth="yes"/>
      <point x="528" y="653" type="line"/>
      <point x="528" y="689" type="line"/>
      <point x="711" y="689" type="line"/>
      <point x="711" y="653" type="line"/>
      <point x="673" y="648"/>
      <point x="663" y="638"/>
      <point x="640" y="578" type="curve" smooth="yes"/>
      <point x="406" y="-16" type="line"/>
    </contour>
  </outline>
</glyph>
<glyph name="W" format="2">
  <advance width="1082"/>
  <unicode hex="0057"/>
  <outline>
    <contour>
      <point x="546" y="542" type="line"/>
      <point x="571" y="484" type="line"/>
      <point x="386" y="-16" type="line"/>
      <point x="352" y="-16" type="line"/>
      <point x="83" y="597" type="line" smooth="yes"/>
      <point x="62" y="644"/>
      <point x="54" y="650"/>
      <point x="9" y="653" type="curve"/>
      <point x="9" y="689" type="line"/>
      <point x="341" y="689" type="line"/>
      <point x="341" y="653" type="line"/>
      <point x="276" y="650"/>
      <point x="262" y="637"/>
      <point x="281" y="595" type="curve" smooth="yes"/>
      <point x="437" y="241" type="line"/>
    </contour>
    <contour>
      <point x="480" y="597" type="line" smooth="yes"/>
      <point x="459" y="645"/>
      <point x="451" y="652"/>
      <point x="406" y="653" type="curve"/>
      <point x="406" y="689" type="line"/>
      <point x="753" y="689" type="line"/>
      <point x="753" y="653" type="line"/>
      <point x="677" y="653"/>
      <point x="655" y="632"/>
      <point x="677" y="581" type="curve" smooth="yes"/>
      <point x="829" y="231" type="line"/>
      <point x="952" y="569" type="line" smooth="yes"/>
      <point x="976" y="635"/>
      <point x="970" y="650"/>
      <point x="920" y="652" type="curve" smooth="yes"/>
      <point x="890" y="653" type="line"/>
      <point x="890" y="689" type="line"/>
      <point x="1073" y="689" type="line"/>
      <point x="1073" y="653" type="line"/>
      <point x="1034" y="648"/>
      <point x="1024" y="637"/>
      <point x="1002" y="578" type="curve" smooth="yes"/>
      <point x="783" y="-16" type="line"/>
      <point x="749" y="-16" type="line"/>
    </contour>
  </outline>
</glyph>
<glyph name="X" format="2">
  <advance width="757"/>
  <unicode hex="0058"/>
  <outline>
    <contour>
      <point x="419" y="397" type="line"/>
      <point x="534" y="566" type="line" smooth="yes"/>
      <point x="581" y="634"/>
      <point x="577" y="649"/>
      <point x="510" y="652" type="curve" smooth="yes"/>
      <point x="487" y="653" type="line"/>
      <point x="487" y="689" type="line"/>
      <point x="713" y="689" type="line"/>
      <point x="713" y="653" type="line"/>
      <point x="681" y="650" type="line"/>
      <point x="645" y="643"/>
      <point x="630" y="628"/>
      <point x="573" y="546" type="curve" smooth="yes"/>
      <point x="445" y="358" type="line"/>
    </contour>
    <contour>
      <point x="19" y="689" type="line"/>
      <point x="386" y="689" type="line"/>
      <point x="386" y="653" type="line"/>
      <point x="357" y="652" type="line" smooth="yes"/>
      <point x="291" y="650"/>
      <point x="286" y="642"/>
      <point x="319" y="593" type="curve" smooth="yes"/>
      <point x="444" y="404" type="line"/>
      <point x="448" y="398" type="line"/>
      <point x="649" y="94" type="line" smooth="yes"/>
      <point x="675" y="55"/>
      <point x="689" y="45"/>
      <point x="726" y="38" type="curve"/>
      <point x="748" y="36" type="line"/>
      <point x="748" y="0" type="line"/>
      <point x="373" y="0" type="line"/>
      <point x="373" y="36" type="line"/>
      <point x="400" y="38" type="line" smooth="yes"/>
      <point x="463" y="43"/>
      <point x="465" y="49"/>
      <point x="424" y="110" type="curve" smooth="yes"/>
      <point x="295" y="305" type="line"/>
      <point x="292" y="309" type="line"/>
      <point x="94" y="609" type="line" smooth="yes"/>
      <point x="72" y="642"/>
      <point x="62" y="648"/>
      <point x="19" y="653" type="curve"/>
    </contour>
    <contour>
      <point x="328" y="315" type="line"/>
      <point x="198" y="123" type="line" smooth="yes"/>
      <point x="150" y="52"/>
      <point x="155" y="41"/>
      <point x="237" y="37" type="curve" smooth="yes"/>
      <point x="260" y="36" type="line"/>
      <point x="260" y="0" type="line"/>
      <point x="9" y="0" type="line"/>
      <point x="9" y="36" type="line"/>
      <point x="41" y="39" type="line" smooth="yes"/>
      <point x="89" y="43"/>
      <point x="93" y="46"/>
      <point x="152" y="133" type="curve" smooth="yes"/>
      <point x="302" y="354" type="line"/>
    </contour>
  </outline>
</glyph>
<glyph name="Y" format="2">
  <advance width="761"/>
  <unicode hex="0059"/>
  <outline>
    <contour>
      <point x="195" y="0" type="line"/>
      <point x="195" y="36" type="line"/>
      <point x="218" y="36" type="line" smooth="yes"/>
      <point x="278" y="36"/>
      <point x="290" y="43"/>
      <point x="290" y="81" type="curve" smooth="yes"/>
      <point x="290" y="300" type="line"/>
      <point x="100" y="609" type="line" smooth="yes"/>
      <point x="80" y="642"/>
      <point x="65" y="649"/>
      <point x="9" y="653" type="curve"/>
      <point x="9" y="689" type="line"/>
      <point x="412" y="689" type="line"/>
      <point x="412" y="653" type="line"/>
      <point x="382" y="652" type="line" smooth="yes"/>
      <point x="305" y="649"/>
      <point x="294" y="636"/>
      <point x="324" y="584" type="curve" smooth="yes"/>
      <point x="463" y="345" type="line"/>
      <point x="592" y="559" type="line" smooth="yes"/>
      <point x="633" y="627"/>
      <point x="623" y="644"/>
      <point x="537" y="651" type="curve" smooth="yes"/>
      <point x="513" y="653" type="line"/>
      <point x="513" y="689" type="line"/>
      <point x="752" y="689" type="line"/>
      <point x="752" y="653" type="line"/>
      <point x="733" y="652" type="line" smooth="yes"/>
      <point x="700" y="650"/>
      <point x="688" y="637"/>
      <point x="635" y="549" type="curve" smooth="yes"/>
      <point x="481" y="294" type="line"/>
      <point x="481" y="82" type="line" smooth="yes"/>
      <point x="481" y="45"/>
      <point x="495" y="36"/>
      <point x="549" y="36" type="curve" smooth="yes"/>
      <point x="576" y="36" type="line"/>
      <point x="576" y="0" type="line"/>
    </contour>
  </outline>
</glyph>
<glyph name="Z" format="2">
  <advance width="634"/>
  <unicode hex="005A"/>
  <outline>
    <contour>
      <point x="-11" y="0" type="line"/>
      <point x="-11" y="33" type="line"/>
      <point x="427" y="656" type="line"/>
      <point x="238" y="656" type="line"/>
      <point x="210" y="651"/>
      <point x="128" y="548"/>
      <point x="67" y="442" type="curve"/>
      <point x="41" y="446" type="line"/>
      <point x="70" y="689" type="line"/>
      <point x="632" y="689" type="line"/>
      <point x="632" y="656" type="line"/>
      <point x="194" y="33" type="line"/>
      <point x="412" y="36" type="line"/>
      <point x="457" y="49"/>
      <point x="522" y="122"/>
      <point x="601" y="250" type="curve"/>
      <point x="626" y="248" type="line"/>
      <point x="598" y="0" type="line"/>
    </contour>
  </outline>
</glyph>
<glyph name="bracketleft" format="2">
  <advance width="503"/>
  <unicode hex="005B"/>
  <outline>
    <contour>
      <point x="124" y="-143" type="line"/>
      <point x="124" y="733" type="line"/>
      <point x="433" y="733" type="line"/>
      <point x="433" y="697" type="line"/>
      <point x="416" y="697" type="line" smooth="yes"/>
      <point x="311" y="697"/>
      <point x="295" y="688"/>
      <point x="295" y="651" type="curve" smooth="yes"/>
      <point x="295" y="-61" type="line" smooth="yes"/>
      <point x="295" y="-98"/>
      <point x="312" y="-107"/>
      <point x="416" y="-107" type="curve" smooth="yes"/>
      <point x="433" y="-107" type="line"/>
      <point x="433" y="-143" type="line"/>
    </contour>
  </outline>
</glyph>
<glyph name="backslash" format="2">
  <advance width="489"/>
  <unicode hex="005C"/>
  <outline>
    <contour>
      <point x="404" y="0" type="line"/>
      <point x="27" y="690" type="line"/>
      <point x="85" y="690" type="line"/>
      <point x="462" y="0" type="line"/>
    </contour>
  </outline>
</glyph>
<glyph name="bracketright" format="2">
  <advance width="506"/>
  <unicode hex="005D"/>
  <outline>
    <contour>
      <point x="379" y="-143" type="line"/>
      <point x="70" y="-143" type="line"/>
      <point x="70" y="-107" type="line"/>
      <point x="87" y="-107" type="line" smooth="yes"/>
      <point x="192" y="-107"/>
      <point x="208" y="-98"/>
      <point x="208" y="-61" type="curve" smooth="yes"/>
      <point x="208" y="651" type="line" smooth="yes"/>
      <point x="208" y="688"/>
      <point x="191" y="697"/>
      <point x="87" y="697" type="curve" smooth="yes"/>
      <point x="70" y="697" type="line"/>
      <point x="70" y="733" type="line"/>
      <point x="379" y="733" type="line"/>
    </contour>
  </outline>
</glyph>
<glyph name="asciicircum" format="2">
  <advance width="454"/>
  <unicode hex="005E"/>
  <outline>
    <contour>
      <point x="92" y="306" type="line"/>
      <point x="92" y="383" type="line"/>
      <point x="362" y="383" type="line"/>
      <point x="362" y="306" type="line"/>
    </contour>
  </outline>
</glyph>
<glyph name="underscore" format="2">
  <advance width="454"/>
  <unicode hex="005F"/>
  <outline>
    <contour>
      <point x="-20" y="-124" type="line"/>
      <point x="-20" y="-76" type="line"/>
      <point x="474" y="-76" type="line"/>
      <point x="474" y="-124" type="line"/>
    </contour>
  </outline>
</glyph>
<glyph name="grave" format="2">
  <advance width="500"/>
  <unicode hex="0060"/>
  <outline>
    <contour>
      <point x="281" y="483" type="line"/>
      <point x="146" y="576"/>
      <point x="101" y="609"/>
      <point x="79" y="634" type="curve" smooth="yes"/>
      <point x="58" y="657"/>
      <point x="61" y="706"/>
      <point x="94" y="735" type="curve" smooth="yes"/>
      <point x="126" y="763"/>
      <point x="175" y="754"/>
      <point x="195" y="731" type="curve" smooth="yes"/>
      <point x="216" y="707"/>
      <point x="246" y="642"/>
      <point x="307" y="504" type="curve"/>
    </contour>
  </outline>
</glyph>
<glyph name="a" format="2">
  <advance width="543"/>
  <unicode hex="0061"/>
  <outline>
    <contour>
      <point x="306" y="247" type="line"/>
      <point x="216" y="220"/>
      <point x="193" y="197"/>
      <point x="193" y="138" type="curve" smooth="yes"/>
      <point x="193" y="88"/>
      <point x="210" y="55"/>
      <point x="237" y="55" type="curve" smooth="yes"/>
      <point x="272" y="55"/>
      <point x="296" y="99"/>
      <point x="296" y="164" type="curve" smooth="yes"/>
      <point x="296" y="345" type="line" smooth="yes"/>
      <point x="296" y="393"/>
      <point x="271" y="421"/>
      <point x="227" y="421" type="curve" smooth="yes"/>
      <point x="192" y="421"/>
      <point x="177" y="416"/>
      <point x="177" y="404" type="curve" smooth="yes"/>
      <point x="177" y="393"/>
      <point x="215" y="353"/>
      <point x="215" y="327" type="curve" smooth="yes"/>
      <point x="215" y="293"/>
      <point x="185" y="270"/>
      <point x="139" y="270" type="curve" smooth="yes"/>
      <point x="99" y="270"/>
      <point x="67" y="304"/>
      <point x="67" y="347" type="curve" smooth="yes"/>
      <point x="67" y="412"/>
      <point x="140" y="454"/>
      <point x="253" y="454" type="curve" smooth="yes"/>
      <point x="378" y="454"/>
      <point x="460" y="405"/>
      <point x="460" y="330" type="curve" smooth="yes"/>
      <point x="460" y="101" type="line" smooth="yes"/>
      <point x="460" y="63"/>
      <point x="465" y="52"/>
      <point x="482" y="52" type="curve" smooth="yes"/>
      <point x="505" y="52"/>
      <point x="512" y="71"/>
      <point x="514" y="141" type="curve"/>
      <point x="550" y="141" type="line"/>
      <point x="550" y="35"/>
      <point x="515" y="-7"/>
      <point x="429" y="-7" type="curve" smooth="yes"/>
      <point x="367" y="-7"/>
      <point x="323" y="27"/>
      <point x="306" y="90" type="curve"/>
      <point x="285" y="28"/>
      <point x="228" y="-14"/>
      <point x="165" y="-14" type="curve" smooth="yes"/>
      <point x="83" y="-14"/>
      <point x="28" y="40"/>
      <point x="28" y="119" type="curve" smooth="yes"/>
      <point x="28" y="207"/>
      <point x="113" y="253"/>
      <point x="306" y="271" type="curve"/>
    </contour>
  </outline>
</glyph>
<glyph name="b" format="2">
  <advance width="589"/>
  <unicode hex="0062"/>
  <outline>
    <contour>
      <point x="348" y="-11" type="curve" smooth="yes"/>
      <point x="286" y="-11"/>
      <point x="246" y="8"/>
      <point x="196" y="60" type="curve" smooth="yes"/>
      <point x="169" y="88"/>
      <point x="132" y="83"/>
      <point x="120" y="50" type="curve" smooth="yes"/>
      <point x="102" y="0" type="line"/>
      <point x="53" y="0" type="line"/>
      <point x="53" y="623" type="line" smooth="yes"/>
      <point x="53" y="651"/>
      <point x="38" y="662"/>
      <point x="-2" y="662" type="curve"/>
      <point x="-2" y="697" type="line"/>
      <point x="225" y="707" type="line"/>
      <point x="225" y="370" type="line"/>
      <point x="248" y="423"/>
      <point x="298" y="452"/>
      <point x="368" y="452" type="curve" smooth="yes"/>
      <point x="479" y="452"/>
      <point x="574" y="342"/>
      <point x="574" y="213" type="curve" smooth="yes"/>
      <point x="574" y="86"/>
      <point x="476" y="-11"/>
    </contour>
    <contour>
      <point x="303" y="36" type="curve" smooth="yes"/>
      <point x="362" y="36"/>
      <point x="383" y="75"/>
      <point x="383" y="185" type="curve" smooth="yes"/>
      <point x="383" y="356"/>
      <point x="368" y="398"/>
      <point x="305" y="398" type="curve" smooth="yes"/>
      <point x="254" y="398"/>
      <point x="221" y="344"/>
      <point x="221" y="258" type="curve" smooth="yes"/>
      <point x="221" y="151" type="line" smooth="yes"/>
      <point x="221" y="75"/>
      <point x="249" y="36"/>
    </contour>
  </outline>
</glyph>
<glyph name="c" format="2">
  <advance width="517"/>
  <unicode hex="0063"/>
  <outline>
    <contour>
      <point x="276" y="-10" type="curve" smooth="yes"/>
      <point x="123" y="-10"/>
      <point x="18" y="85"/>
      <point x="18" y="223" type="curve" smooth="yes"/>
      <point x="18" y="359"/>
      <point x="133" y="453"/>
      <point x="300" y="453" type="curve" smooth="yes"/>
      <point x="416" y="453"/>
      <point x="482" y="408"/>
      <point x="482" y="328" type="curve" smooth="yes"/>
      <point x="482" y="273"/>
      <point x="444" y="233"/>
      <point x="393" y="233" type="curve" smooth="yes"/>
      <point x="352" y="233"/>
      <point x="324" y="257"/>
      <point x="324" y="292" type="curve" smooth="yes"/>
      <point x="324" y="325"/>
      <point x="380" y="385"/>
      <point x="380" y="397" type="curve" smooth="yes"/>
      <point x="380" y="413"/>
      <point x="360" y="420"/>
      <point x="314" y="420" type="curve" smooth="yes"/>
      <point x="237" y="420"/>
      <point x="208" y="365"/>
      <point x="208" y="221" type="curve" smooth="yes"/>
      <point x="208" y="109"/>
      <point x="250" y="49"/>
      <point x="328" y="49" type="curve" smooth="yes"/>
      <point x="383" y="49"/>
      <point x="438" y="75"/>
      <point x="472" y="117" type="curve"/>
      <point x="497" y="97" type="line"/>
      <point x="445" y="28"/>
      <point x="366" y="-10"/>
    </contour>
  </outline>
</glyph>
<glyph name="d" format="2">
  <advance width="596"/>
  <unicode hex="0064"/>
  <outline>
    <contour>
      <point x="222" y="-10" type="curve" smooth="yes"/>
      <point x="103" y="-10"/>
      <point x="15" y="91"/>
      <point x="15" y="229" type="curve" smooth="yes"/>
      <point x="15" y="358"/>
      <point x="102" y="453"/>
      <point x="222" y="453" type="curve" smooth="yes"/>
      <point x="287" y="453"/>
      <point x="336" y="428"/>
      <point x="365" y="379" type="curve"/>
      <point x="365" y="618" type="line" smooth="yes"/>
      <point x="365" y="652"/>
      <point x="352" y="662"/>
      <point x="306" y="662" type="curve" smooth="yes"/>
      <point x="297" y="662" type="line"/>
      <point x="297" y="697" type="line"/>
      <point x="536" y="707" type="line"/>
      <point x="536" y="67" type="line" smooth="yes"/>
      <point x="536" y="43"/>
      <point x="542" y="40"/>
      <point x="588" y="38" type="curve"/>
      <point x="588" y="3" type="line"/>
      <point x="364" y="-2" type="line"/>
      <point x="364" y="70" type="line"/>
      <point x="338" y="16"/>
      <point x="292" y="-10"/>
    </contour>
    <contour>
      <point x="286" y="39" type="curve" smooth="yes"/>
      <point x="338" y="39"/>
      <point x="368" y="96"/>
      <point x="368" y="195" type="curve" smooth="yes"/>
      <point x="368" y="293" type="line" smooth="yes"/>
      <point x="368" y="356"/>
      <point x="334" y="399"/>
      <point x="286" y="399" type="curve" smooth="yes"/>
      <point x="225" y="399"/>
      <point x="206" y="365"/>
      <point x="206" y="253" type="curve" smooth="yes"/>
      <point x="206" y="92"/>
      <point x="226" y="39"/>
    </contour>
  </outline>
</glyph>
<glyph name="e" format="2">
  <advance width="500"/>
  <unicode hex="0065"/>
  <outline>
    <contour>
      <point x="165" y="278" type="line"/>
      <point x="326" y="278" type="line"/>
      <point x="317" y="382"/>
      <point x="301" y="420"/>
      <point x="266" y="420" type="curve" smooth="yes"/>
      <point x="226" y="420"/>
      <point x="205" y="365"/>
      <point x="205" y="258" type="curve" smooth="yes"/>
      <point x="205" y="113"/>
      <point x="243" y="48"/>
      <point x="328" y="48" type="curve" smooth="yes"/>
      <point x="379" y="48"/>
      <point x="415" y="65"/>
      <point x="466" y="113" type="curve"/>
      <point x="490" y="94" type="line"/>
      <point x="442" y="26"/>
      <point x="369" y="-10"/>
      <point x="280" y="-10" type="curve" smooth="yes"/>
      <point x="112" y="-10"/>
      <point x="18" y="74"/>
      <point x="18" y="223" type="curve" smooth="yes"/>
      <point x="18" y="351"/>
      <point x="131" y="453"/>
      <point x="275" y="453" type="curve" smooth="yes"/>
      <point x="398" y="453"/>
      <point x="474" y="377"/>
      <point x="487" y="242" type="curve"/>
      <point x="165" y="242" type="line"/>
    </contour>
  </outline>
</glyph>
<glyph name="f" format="2">
  <advance width="356"/>
  <unicode hex="0066"/>
  <outline>
    <contour>
      <point x="248" y="70" type="line" smooth="yes"/>
      <point x="248" y="50"/>
      <point x="261" y="37"/>
      <point x="283" y="36" type="curve" smooth="yes"/>
      <point x="313" y="35" type="line"/>
      <point x="313" y="0" type="line"/>
      <point x="25" y="0" type="line"/>
      <point x="25" y="35" type="line"/>
      <point x="33" y="35" type="line" smooth="yes"/>
      <point x="60" y="35"/>
      <point x="74" y="49"/>
      <point x="74" y="75" type="curve" smooth="yes"/>
      <point x="74" y="541" type="line" smooth="yes"/>
      <point x="74" y="641"/>
      <point x="153" y="703"/>
      <point x="280" y="703" type="curve" smooth="yes"/>
      <point x="375" y="703"/>
      <point x="443" y="652"/>
      <point x="443" y="581" type="curve" smooth="yes"/>
      <point x="443" y="530"/>
      <point x="413" y="497"/>
      <point x="366" y="497" type="curve" smooth="yes"/>
      <point x="327" y="497"/>
      <point x="299" y="521"/>
      <point x="299" y="554" type="curve" smooth="yes"/>
      <point x="299" y="598"/>
      <point x="337" y="628"/>
      <point x="337" y="653" type="curve" smooth="yes"/>
      <point x="337" y="664"/>
      <point x="328" y="670"/>
      <point x="311" y="670" type="curve" smooth="yes"/>
      <point x="267" y="670"/>
      <point x="248" y="638"/>
      <point x="248" y="563" type="curve" smooth="yes"/>
    </contour>
    <contour>
      <point x="338" y="443" type="line"/>
      <point x="338" y="404" type="line"/>
      <point x="19" y="404" type="line"/>
      <point x="19" y="443" type="line"/>
    </contour>
  </outline>
</glyph>
<glyph name="g" format="2">
  <advance width="567"/>
  <unicode hex="0067"/>
  <outline>
    <contour>
      <point x="266" y="179" type="curve" smooth="yes"/>
      <point x="298" y="179"/>
      <point x="311" y="215"/>
      <point x="311" y="306" type="curve" smooth="yes"/>
      <point x="311" y="393"/>
      <point x="300" y="422"/>
      <point x="266" y="422" type="curve" smooth="yes"/>
      <point x="232" y="422"/>
      <point x="221" y="393"/>
      <point x="221" y="306" type="curve" smooth="yes"/>
      <point x="221" y="215"/>
      <point x="234" y="179"/>
    </contour>
    <contour>
      <point x="269" y="-173" type="curve" smooth="yes"/>
      <point x="370" y="-173"/>
      <point x="415" y="-148"/>
      <point x="415" y="-92" type="curve" smooth="yes"/>
      <point x="415" y="-47"/>
      <point x="394" y="-32"/>
      <point x="332" y="-32" type="curve" smooth="yes"/>
      <point x="198" y="-32" type="line" smooth="yes"/>
      <point x="162" y="-32"/>
      <point x="145" y="-52"/>
      <point x="145" y="-96" type="curve" smooth="yes"/>
      <point x="145" y="-151"/>
      <point x="180" y="-173"/>
    </contour>
    <contour>
      <point x="488" y="308" type="curve" smooth="yes"/>
      <point x="488" y="221"/>
      <point x="388" y="150"/>
      <point x="266" y="150" type="curve" smooth="yes"/>
      <point x="170" y="150" type="line" smooth="yes"/>
      <point x="121" y="150"/>
      <point x="103" y="143"/>
      <point x="103" y="123" type="curve" smooth="yes"/>
      <point x="103" y="105"/>
      <point x="117" y="100"/>
      <point x="167" y="100" type="curve" smooth="yes"/>
      <point x="391" y="100" type="line" smooth="yes"/>
      <point x="464" y="100"/>
      <point x="522" y="34"/>
      <point x="522" y="-48" type="curve" smooth="yes"/>
      <point x="522" y="-150"/>
      <point x="428" y="-207"/>
      <point x="260" y="-207" type="curve" smooth="yes"/>
      <point x="80" y="-207"/>
      <point x="0" y="-177"/>
      <point x="0" y="-109" type="curve" smooth="yes"/>
      <point x="0" y="-69"/>
      <point x="42" y="-38"/>
      <point x="112" y="-27" type="curve"/>
      <point x="62" y="-11"/>
      <point x="31" y="27"/>
      <point x="31" y="71" type="curve" smooth="yes"/>
      <point x="31" y="131"/>
      <point x="76" y="169"/>
      <point x="153" y="172" type="curve"/>
      <point x="84" y="187"/>
      <point x="44" y="237"/>
      <point x="44" y="308" type="curve" smooth="yes"/>
      <point x="44" y="390"/>
      <point x="143" y="455"/>
      <point x="266" y="455" type="curve" smooth="yes"/>
      <point x="309" y="455"/>
      <point x="358" y="444"/>
      <point x="399" y="426" type="curve" smooth="yes"/>
      <point x="456" y="400"/>
      <point x="488" y="357"/>
    </contour>
    <contour>
      <point x="386" y="408" type="line"/>
      <point x="386" y="492"/>
      <point x="420" y="539"/>
      <point x="481" y="539" type="curve" smooth="yes"/>
      <point x="534" y="539"/>
      <point x="580" y="501"/>
      <point x="580" y="456" type="curve" smooth="yes"/>
      <point x="580" y="422"/>
      <point x="557" y="396"/>
      <point x="527" y="396" type="curve" smooth="yes"/>
      <point x="476" y="396"/>
      <point x="447" y="466"/>
      <point x="433" y="466" type="curve" smooth="yes"/>
      <point x="418" y="466"/>
      <point x="410" y="431"/>
      <point x="418" y="399" type="curve"/>
    </contour>
  </outline>
</glyph>
<glyph name="h" format="2">
  <advance width="577"/>
  <unicode hex="0068"/>
  <outline>
    <contour>
      <point x="24" y="0" type="line"/>
      <point x="24" y="35" type="line"/>
      <point x="32" y="35" type="line" smooth="yes"/>
      <point x="57" y="35"/>
      <point x="63" y="43"/>
      <point x="63" y="75" type="curve" smooth="yes"/>
      <point x="63" y="633" type="line" smooth="yes"/>
      <point x="63" y="649"/>
      <point x="51" y="656"/>
      <point x="13" y="663" type="curve"/>
      <point x="13" y="698" type="line"/>
      <point x="235" y="708" type="line"/>
      <point x="235" y="375" type="line"/>
      <point x="269" y="423"/>
      <point x="325" y="453"/>
      <point x="381" y="453" type="curve" smooth="yes"/>
      <point x="464" y="453"/>
      <point x="518" y="408"/>
      <point x="518" y="339" type="curve" smooth="yes"/>
      <point x="518" y="70" type="line" smooth="yes"/>
      <point x="518" y="42"/>
      <point x="523" y="35"/>
      <point x="543" y="35" type="curve" smooth="yes"/>
      <point x="569" y="35" type="line"/>
      <point x="569" y="0" type="line"/>
      <point x="305" y="0" type="line"/>
      <point x="305" y="35" type="line"/>
      <point x="313" y="35" type="line" smooth="yes"/>
      <point x="339" y="35"/>
      <point x="344" y="42"/>
      <point x="344" y="75" type="curve" smooth="yes"/>
      <point x="344" y="343" type="line" smooth="yes"/>
      <point x="344" y="377"/>
      <point x="334" y="389"/>
      <point x="307" y="389" type="curve" smooth="yes"/>
      <point x="272" y="389"/>
      <point x="234" y="356"/>
      <point x="234" y="325" type="curve" smooth="yes"/>
      <point x="234" y="70" type="line" smooth="yes"/>
      <point x="234" y="46"/>
      <point x="240" y="35"/>
      <point x="254" y="35" type="curve" smooth="yes"/>
      <point x="273" y="35" type="line"/>
      <point x="273" y="0" type="line"/>
    </contour>
  </outline>
</glyph>
<glyph name="i" format="2">
  <advance width="332"/>
  <unicode hex="0069"/>
  <outline>
    <contour>
      <point x="164" y="488" type="curve" smooth="yes"/>
      <point x="112" y="488"/>
      <point x="67" y="533"/>
      <point x="67" y="589" type="curve" smooth="yes"/>
      <point x="67" y="645"/>
      <point x="112" y="691"/>
      <point x="164" y="691" type="curve" smooth="yes"/>
      <point x="216" y="691"/>
      <point x="261" y="645"/>
      <point x="261" y="589" type="curve" smooth="yes"/>
      <point x="261" y="533"/>
      <point x="216" y="488"/>
    </contour>
    <contour>
      <point x="24" y="0" type="line"/>
      <point x="24" y="35" type="line"/>
      <point x="32" y="35" type="line" smooth="yes"/>
      <point x="70" y="35"/>
      <point x="83" y="44"/>
      <point x="83" y="75" type="curve" smooth="yes"/>
      <point x="83" y="378" type="line" smooth="yes"/>
      <point x="83" y="394"/>
      <point x="66" y="398"/>
      <point x="23" y="408" type="curve"/>
      <point x="23" y="443" type="line"/>
      <point x="257" y="448" type="line"/>
      <point x="257" y="70" type="line" smooth="yes"/>
      <point x="257" y="44"/>
      <point x="265" y="35"/>
      <point x="298" y="35" type="curve" smooth="yes"/>
      <point x="324" y="35" type="line"/>
      <point x="324" y="0" type="line"/>
    </contour>
  </outline>
</glyph>
<glyph name="j" format="2">
  <advance width="310"/>
  <unicode hex="006A"/>
  <outline>
    <contour>
      <point x="164" y="488" type="curve" smooth="yes"/>
      <point x="111" y="488"/>
      <point x="67" y="534"/>
      <point x="67" y="589" type="curve" smooth="yes"/>
      <point x="67" y="644"/>
      <point x="111" y="691"/>
      <point x="164" y="691" type="curve" smooth="yes"/>
      <point x="217" y="691"/>
      <point x="261" y="644"/>
      <point x="261" y="589" type="curve" smooth="yes"/>
      <point x="261" y="534"/>
      <point x="217" y="488"/>
    </contour>
    <contour>
      <point x="257" y="448" type="line"/>
      <point x="257" y="-43" type="line" smooth="yes"/>
      <point x="257" y="-146"/>
      <point x="187" y="-205"/>
      <point x="66" y="-205" type="curve" smooth="yes"/>
      <point x="-32" y="-205"/>
      <point x="-97" y="-161"/>
      <point x="-97" y="-96" type="curve" smooth="yes"/>
      <point x="-97" y="-47"/>
      <point x="-65" y="-12"/>
      <point x="-18" y="-12" type="curve" smooth="yes"/>
      <point x="18" y="-12"/>
      <point x="47" y="-37"/>
      <point x="47" y="-70" type="curve" smooth="yes"/>
      <point x="47" y="-104"/>
      <point x="13" y="-128"/>
      <point x="13" y="-157" type="curve" smooth="yes"/>
      <point x="13" y="-167"/>
      <point x="22" y="-172"/>
      <point x="39" y="-172" type="curve" smooth="yes"/>
      <point x="72" y="-172"/>
      <point x="83" y="-146"/>
      <point x="83" y="-65" type="curve" smooth="yes"/>
      <point x="83" y="378" type="line" smooth="yes"/>
      <point x="83" y="392"/>
      <point x="75" y="396"/>
      <point x="23" y="408" type="curve"/>
      <point x="23" y="443" type="line"/>
    </contour>
  </outline>
</glyph>
<glyph name="k" format="2">
  <advance width="572"/>
  <unicode hex="006B"/>
  <outline>
    <contour>
      <point x="234" y="70" type="curve" smooth="yes"/>
      <point x="234" y="707" type="line"/>
      <point x="13" y="697" type="line"/>
      <point x="13" y="662" type="line"/>
      <point x="54" y="662"/>
      <point x="63" y="655"/>
      <point x="63" y="622" type="curve" smooth="yes"/>
      <point x="63" y="75" type="line" smooth="yes"/>
      <point x="63" y="45"/>
      <point x="56" y="35"/>
      <point x="32" y="35" type="curve" smooth="yes"/>
      <point x="24" y="35" type="line"/>
      <point x="24" y="0" type="line"/>
      <point x="268" y="0" type="line"/>
      <point x="268" y="35" type="line"/>
      <point x="249" y="35" type="line" smooth="yes"/>
      <point x="238" y="35"/>
      <point x="234" y="44"/>
    </contour>
    <contour>
      <point x="524" y="443" type="line"/>
      <point x="338" y="443" type="line"/>
      <point x="338" y="408" type="line"/>
      <point x="388" y="403"/>
      <point x="398" y="385"/>
      <point x="366" y="358" type="curve" smooth="yes"/>
      <point x="204" y="223" type="line"/>
      <point x="202" y="176" type="line"/>
      <point x="302" y="260" type="line"/>
      <point x="421" y="358" type="line" smooth="yes"/>
      <point x="470" y="399"/>
      <point x="489" y="408"/>
      <point x="524" y="408" type="curve"/>
    </contour>
    <contour>
      <point x="358" y="324" type="line"/>
      <point x="238" y="224" type="line"/>
      <point x="310" y="105" type="line" smooth="yes"/>
      <point x="339" y="57"/>
      <point x="336" y="39"/>
      <point x="299" y="35" type="curve"/>
      <point x="299" y="0" type="line"/>
      <point x="564" y="0" type="line"/>
      <point x="564" y="35" type="line"/>
      <point x="533" y="37"/>
      <point x="528" y="41"/>
      <point x="502" y="84" type="curve" smooth="yes"/>
    </contour>
  </outline>
</glyph>
<glyph name="l" format="2">
  <advance width="317"/>
  <unicode hex="006C"/>
  <outline>
    <contour>
      <point x="24" y="0" type="line"/>
      <point x="24" y="35" type="line"/>
      <point x="32" y="35" type="line" smooth="yes"/>
      <point x="64" y="35"/>
      <point x="73" y="44"/>
      <point x="73" y="75" type="curve" smooth="yes"/>
      <point x="73" y="616" type="line" smooth="yes"/>
      <point x="73" y="649"/>
      <point x="64" y="657"/>
      <point x="18" y="662" type="curve"/>
      <point x="18" y="697" type="line"/>
      <point x="247" y="707" type="line"/>
      <point x="247" y="70" type="line" smooth="yes"/>
      <point x="247" y="43"/>
      <point x="253" y="35"/>
      <point x="272" y="35" type="curve" smooth="yes"/>
      <point x="309" y="35" type="line"/>
      <point x="309" y="0" type="line"/>
    </contour>
  </outline>
</glyph>
<glyph name="m" format="2">
  <advance width="854"/>
  <unicode hex="006D"/>
  <outline>
    <contour>
      <point x="24" y="0" type="line"/>
      <point x="24" y="35" type="line"/>
      <point x="32" y="35" type="line" smooth="yes"/>
      <point x="66" y="35"/>
      <point x="73" y="42"/>
      <point x="73" y="75" type="curve" smooth="yes"/>
      <point x="73" y="378" type="line" smooth="yes"/>
      <point x="73" y="394"/>
      <point x="62" y="401"/>
      <point x="24" y="408" type="curve"/>
      <point x="24" y="443" type="line"/>
      <point x="248" y="450" type="line"/>
      <point x="248" y="375" type="line"/>
      <point x="283" y="425"/>
      <point x="334" y="453"/>
      <point x="389" y="453" type="curve" smooth="yes"/>
      <point x="457" y="453"/>
      <point x="502" y="423"/>
      <point x="516" y="369" type="curve"/>
      <point x="547" y="420"/>
      <point x="605" y="453"/>
      <point x="663" y="453" type="curve" smooth="yes"/>
      <point x="744" y="453"/>
      <point x="795" y="409"/>
      <point x="795" y="339" type="curve" smooth="yes"/>
      <point x="795" y="70" type="line" smooth="yes"/>
      <point x="795" y="42"/>
      <point x="800" y="35"/>
      <point x="820" y="35" type="curve" smooth="yes"/>
      <point x="846" y="35" type="line"/>
      <point x="846" y="0" type="line"/>
      <point x="587" y="0" type="line"/>
      <point x="587" y="35" type="line"/>
      <point x="595" y="35" type="line" smooth="yes"/>
      <point x="619" y="35"/>
      <point x="621" y="39"/>
      <point x="621" y="75" type="curve" smooth="yes"/>
      <point x="621" y="343" type="line" smooth="yes"/>
      <point x="621" y="379"/>
      <point x="614" y="389"/>
      <point x="589" y="389" type="curve" smooth="yes"/>
      <point x="555" y="389"/>
      <point x="521" y="357"/>
      <point x="521" y="325" type="curve" smooth="yes"/>
      <point x="521" y="70" type="line" smooth="yes"/>
      <point x="521" y="42"/>
      <point x="524" y="35"/>
      <point x="536" y="35" type="curve" smooth="yes"/>
      <point x="555" y="35" type="line"/>
      <point x="555" y="0" type="line"/>
      <point x="313" y="0" type="line"/>
      <point x="313" y="35" type="line"/>
      <point x="321" y="35" type="line" smooth="yes"/>
      <point x="345" y="35"/>
      <point x="347" y="39"/>
      <point x="347" y="75" type="curve" smooth="yes"/>
      <point x="347" y="343" type="line" smooth="yes"/>
      <point x="347" y="379"/>
      <point x="340" y="389"/>
      <point x="315" y="389" type="curve" smooth="yes"/>
      <point x="281" y="389"/>
      <point x="247" y="357"/>
      <point x="247" y="325" type="curve" smooth="yes"/>
      <point x="247" y="70" type="line" smooth="yes"/>
      <point x="247" y="42"/>
      <point x="250" y="35"/>
      <point x="262" y="35" type="curve" smooth="yes"/>
      <point x="281" y="35" type="line"/>
      <point x="281" y="0" type="line"/>
    </contour>
  </outline>
</glyph>
<glyph name="n" format="2">
  <advance width="590"/>
  <unicode hex="006E"/>
  <outline>
    <contour>
      <point x="24" y="0" type="line"/>
      <point x="24" y="35" type="line"/>
      <point x="32" y="35" type="line" smooth="yes"/>
      <point x="66" y="35"/>
      <point x="73" y="42"/>
      <point x="73" y="75" type="curve" smooth="yes"/>
      <point x="73" y="378" type="line" smooth="yes"/>
      <point x="73" y="394"/>
      <point x="62" y="401"/>
      <point x="24" y="408" type="curve"/>
      <point x="24" y="443" type="line"/>
      <point x="248" y="450" type="line"/>
      <point x="248" y="375" type="line"/>
      <point x="282" y="423"/>
      <point x="338" y="453"/>
      <point x="394" y="453" type="curve" smooth="yes"/>
      <point x="477" y="453"/>
      <point x="531" y="408"/>
      <point x="531" y="339" type="curve" smooth="yes"/>
      <point x="531" y="70" type="line" smooth="yes"/>
      <point x="531" y="42"/>
      <point x="536" y="35"/>
      <point x="556" y="35" type="curve" smooth="yes"/>
      <point x="582" y="35" type="line"/>
      <point x="582" y="0" type="line"/>
      <point x="318" y="0" type="line"/>
      <point x="318" y="35" type="line"/>
      <point x="326" y="35" type="line" smooth="yes"/>
      <point x="352" y="35"/>
      <point x="357" y="42"/>
      <point x="357" y="75" type="curve" smooth="yes"/>
      <point x="357" y="343" type="line" smooth="yes"/>
      <point x="357" y="377"/>
      <point x="347" y="389"/>
      <point x="320" y="389" type="curve" smooth="yes"/>
      <point x="285" y="389"/>
      <point x="247" y="356"/>
      <point x="247" y="325" type="curve" smooth="yes"/>
      <point x="247" y="70" type="line" smooth="yes"/>
      <point x="247" y="46"/>
      <point x="253" y="35"/>
      <point x="267" y="35" type="curve" smooth="yes"/>
      <point x="286" y="35" type="line"/>
      <point x="286" y="0" type="line"/>
    </contour>
  </outline>
</glyph>
<glyph name="o" format="2">
  <advance width="580"/>
  <unicode hex="006F"/>
  <outline>
    <contour>
      <point x="285" y="-7" type="curve" smooth="yes"/>
      <point x="137" y="-7"/>
      <point x="18" y="100"/>
      <point x="18" y="233" type="curve" smooth="yes"/>
      <point x="18" y="361"/>
      <point x="130" y="453"/>
      <point x="285" y="453" type="curve" smooth="yes"/>
      <point x="443" y="453"/>
      <point x="562" y="359"/>
      <point x="562" y="233" type="curve" smooth="yes"/>
      <point x="562" y="103"/>
      <point x="436" y="-7"/>
    </contour>
    <contour>
      <point x="289" y="24" type="curve" smooth="yes"/>
      <point x="349" y="24"/>
      <point x="371" y="79"/>
      <point x="371" y="231" type="curve" smooth="yes"/>
      <point x="371" y="377"/>
      <point x="352" y="420"/>
      <point x="289" y="420" type="curve" smooth="yes"/>
      <point x="226" y="420"/>
      <point x="208" y="378"/>
      <point x="208" y="231" type="curve" smooth="yes"/>
      <point x="208" y="78"/>
      <point x="229" y="24"/>
    </contour>
  </outline>
</glyph>
<glyph name="p" format="2">
  <advance width="599"/>
  <unicode hex="0070"/>
  <outline>
    <contour>
      <point x="13" y="-200" type="line"/>
      <point x="13" y="-165" type="line"/>
      <point x="21" y="-165" type="line" smooth="yes"/>
      <point x="54" y="-165"/>
      <point x="63" y="-157"/>
      <point x="63" y="-125" type="curve" smooth="yes"/>
      <point x="63" y="373" type="line" smooth="yes"/>
      <point x="63" y="394"/>
      <point x="50" y="403"/>
      <point x="13" y="408" type="curve"/>
      <point x="13" y="443" type="line"/>
      <point x="235" y="450" type="line"/>
      <point x="235" y="370" type="line"/>
      <point x="257" y="420"/>
      <point x="309" y="452"/>
      <point x="368" y="452" type="curve" smooth="yes"/>
      <point x="490" y="452"/>
      <point x="584" y="348"/>
      <point x="584" y="213" type="curve" smooth="yes"/>
      <point x="584" y="86"/>
      <point x="490" y="-11"/>
      <point x="367" y="-11" type="curve" smooth="yes"/>
      <point x="309" y="-11"/>
      <point x="258" y="15"/>
      <point x="234" y="57" type="curve"/>
      <point x="234" y="-130" type="line" smooth="yes"/>
      <point x="234" y="-156"/>
      <point x="243" y="-165"/>
      <point x="268" y="-165" type="curve" smooth="yes"/>
      <point x="297" y="-165" type="line"/>
      <point x="297" y="-200" type="line"/>
    </contour>
    <contour>
      <point x="313" y="36" type="curve" smooth="yes"/>
      <point x="376" y="36"/>
      <point x="394" y="76"/>
      <point x="393" y="210" type="curve" smooth="yes"/>
      <point x="392" y="350"/>
      <point x="372" y="398"/>
      <point x="315" y="398" type="curve" smooth="yes"/>
      <point x="265" y="398"/>
      <point x="231" y="347"/>
      <point x="231" y="271" type="curve" smooth="yes"/>
      <point x="231" y="149" type="line" smooth="yes"/>
      <point x="231" y="83"/>
      <point x="265" y="36"/>
    </contour>
  </outline>
</glyph>
<glyph name="q" format="2">
  <advance width="589"/>
  <unicode hex="0071"/>
  <outline>
    <contour>
      <point x="300" y="-200" type="line"/>
      <point x="300" y="-164" type="line"/>
      <point x="318" y="-164" type="line" smooth="yes"/>
      <point x="349" y="-164"/>
      <point x="364" y="-151"/>
      <point x="364" y="-124" type="curve" smooth="yes"/>
      <point x="364" y="73" type="line"/>
      <point x="335" y="13"/>
      <point x="296" y="-9"/>
      <point x="221" y="-9" type="curve" smooth="yes"/>
      <point x="102" y="-9"/>
      <point x="15" y="92"/>
      <point x="15" y="230" type="curve" smooth="yes"/>
      <point x="15" y="359"/>
      <point x="110" y="453"/>
      <point x="241" y="453" type="curve" smooth="yes"/>
      <point x="299" y="453"/>
      <point x="342" y="432"/>
      <point x="397" y="379" type="curve" smooth="yes"/>
      <point x="422" y="354"/>
      <point x="457" y="361"/>
      <point x="469" y="393" type="curve" smooth="yes"/>
      <point x="486" y="442" type="line"/>
      <point x="536" y="442" type="line"/>
      <point x="536" y="-129" type="line" smooth="yes"/>
      <point x="536" y="-154"/>
      <point x="543" y="-164"/>
      <point x="560" y="-164" type="curve" smooth="yes"/>
      <point x="579" y="-164" type="line"/>
      <point x="579" y="-200" type="line"/>
    </contour>
    <contour>
      <point x="285" y="39" type="curve" smooth="yes"/>
      <point x="335" y="39"/>
      <point x="368" y="90"/>
      <point x="368" y="168" type="curve" smooth="yes"/>
      <point x="368" y="277" type="line" smooth="yes"/>
      <point x="368" y="358"/>
      <point x="340" y="399"/>
      <point x="286" y="399" type="curve" smooth="yes"/>
      <point x="222" y="399"/>
      <point x="204" y="364"/>
      <point x="206" y="242" type="curve" smooth="yes"/>
      <point x="209" y="81"/>
      <point x="225" y="39"/>
    </contour>
  </outline>
</glyph>
<glyph name="r" format="2">
  <advance width="435"/>
  <unicode hex="0072"/>
  <outline>
    <contour>
      <point x="24" y="0" type="line"/>
      <point x="24" y="35" type="line"/>
      <point x="32" y="35" type="line" smooth="yes"/>
      <point x="62" y="35"/>
      <point x="73" y="46"/>
      <point x="73" y="75" type="curve" smooth="yes"/>
      <point x="73" y="378" type="line" smooth="yes"/>
      <point x="73" y="394"/>
      <point x="67" y="398"/>
      <point x="29" y="408" type="curve"/>
      <point x="29" y="443" type="line"/>
      <point x="247" y="448" type="line"/>
      <point x="247" y="334" type="line"/>
      <point x="269" y="404"/>
      <point x="317" y="453"/>
      <point x="361" y="453" type="curve" smooth="yes"/>
      <point x="412" y="453"/>
      <point x="445" y="419"/>
      <point x="445" y="365" type="curve" smooth="yes"/>
      <point x="445" y="325"/>
      <point x="416" y="297"/>
      <point x="374" y="297" type="curve" smooth="yes"/>
      <point x="334" y="297"/>
      <point x="307" y="348"/>
      <point x="297" y="348" type="curve" smooth="yes"/>
      <point x="273" y="348"/>
      <point x="247" y="318"/>
      <point x="247" y="290" type="curve" smooth="yes"/>
      <point x="247" y="70" type="line" smooth="yes"/>
      <point x="247" y="43"/>
      <point x="257" y="35"/>
      <point x="289" y="35" type="curve" smooth="yes"/>
      <point x="308" y="35" type="line"/>
      <point x="308" y="0" type="line"/>
    </contour>
  </outline>
</glyph>
<glyph name="s" format="2">
  <advance width="467"/>
  <unicode hex="0073"/>
  <outline>
    <contour>
      <point x="255" y="-6" type="curve" smooth="yes"/>
      <point x="153" y="-6"/>
      <point x="123" y="38"/>
      <point x="94" y="38" type="curve" smooth="yes"/>
      <point x="82" y="38"/>
      <point x="72" y="25"/>
      <point x="65" y="0" type="curve"/>
      <point x="36" y="0" type="line"/>
      <point x="36" y="156" type="line"/>
      <point x="67" y="156" type="line"/>
      <point x="102" y="79"/>
      <point x="170" y="23"/>
      <point x="228" y="23" type="curve" smooth="yes"/>
      <point x="273" y="23"/>
      <point x="299" y="44"/>
      <point x="299" y="79" type="curve" smooth="yes"/>
      <point x="299" y="109"/>
      <point x="277" y="124"/>
      <point x="200" y="146" type="curve" smooth="yes"/>
      <point x="82" y="181"/>
      <point x="41" y="223"/>
      <point x="41" y="312" type="curve" smooth="yes"/>
      <point x="41" y="394"/>
      <point x="122" y="454"/>
      <point x="233" y="454" type="curve" smooth="yes"/>
      <point x="305" y="454"/>
      <point x="333" y="435"/>
      <point x="350" y="435" type="curve" smooth="yes"/>
      <point x="363" y="435"/>
      <point x="370" y="439"/>
      <point x="388" y="455" type="curve"/>
      <point x="416" y="455" type="line"/>
      <point x="416" y="309" type="line"/>
      <point x="385" y="309" type="line"/>
      <point x="375" y="346"/>
      <point x="362" y="371"/>
      <point x="340" y="390" type="curve" smooth="yes"/>
      <point x="316" y="411"/>
      <point x="283" y="423"/>
      <point x="248" y="423" type="curve" smooth="yes"/>
      <point x="211" y="423"/>
      <point x="188" y="402"/>
      <point x="188" y="370" type="curve" smooth="yes"/>
      <point x="188" y="343"/>
      <point x="209" y="328"/>
      <point x="278" y="307" type="curve" smooth="yes"/>
      <point x="401" y="271"/>
      <point x="445" y="229"/>
      <point x="445" y="148" type="curve" smooth="yes"/>
      <point x="445" y="58"/>
      <point x="367" y="-6"/>
    </contour>
  </outline>
</glyph>
<glyph name="t" format="2">
  <advance width="417"/>
  <unicode hex="0074"/>
  <outline>
    <contour>
      <point x="242" y="117" type="line" smooth="yes"/>
      <point x="242" y="63"/>
      <point x="257" y="42"/>
      <point x="295" y="42" type="curve" smooth="yes"/>
      <point x="336" y="42"/>
      <point x="351" y="64"/>
      <point x="351" y="124" type="curve"/>
      <point x="388" y="124" type="line"/>
      <point x="382" y="27"/>
      <point x="334" y="-15"/>
      <point x="229" y="-15" type="curve" smooth="yes"/>
      <point x="124" y="-15"/>
      <point x="68" y="31"/>
      <point x="68" y="117" type="curve" smooth="yes"/>
      <point x="68" y="594" type="line"/>
      <point x="242" y="594" type="line"/>
    </contour>
    <contour>
      <point x="357" y="443" type="line"/>
      <point x="357" y="404" type="line"/>
      <point x="13" y="404" type="line"/>
      <point x="13" y="443" type="line"/>
    </contour>
  </outline>
</glyph>
<glyph name="u" format="2">
  <advance width="582"/>
  <unicode hex="0075"/>
  <outline>
    <contour>
      <point x="192" y="-10" type="curve" smooth="yes"/>
      <point x="111" y="-10"/>
      <point x="59" y="39"/>
      <point x="59" y="114" type="curve" smooth="yes"/>
      <point x="59" y="373" type="line" smooth="yes"/>
      <point x="59" y="397"/>
      <point x="51" y="408"/>
      <point x="34" y="408" type="curve" smooth="yes"/>
      <point x="14" y="408" type="line"/>
      <point x="14" y="443" type="line"/>
      <point x="233" y="448" type="line"/>
      <point x="233" y="125" type="line" smooth="yes"/>
      <point x="233" y="67"/>
      <point x="240" y="54"/>
      <point x="270" y="54" type="curve" smooth="yes"/>
      <point x="305" y="54"/>
      <point x="343" y="87"/>
      <point x="343" y="118" type="curve" smooth="yes"/>
      <point x="343" y="373" type="line" smooth="yes"/>
      <point x="343" y="397"/>
      <point x="335" y="408"/>
      <point x="318" y="408" type="curve" smooth="yes"/>
      <point x="299" y="408" type="line"/>
      <point x="299" y="443" type="line"/>
      <point x="517" y="448" type="line"/>
      <point x="517" y="65" type="line" smooth="yes"/>
      <point x="517" y="48"/>
      <point x="532" y="40"/>
      <point x="574" y="35" type="curve"/>
      <point x="574" y="0" type="line"/>
      <point x="342" y="-5" type="line"/>
      <point x="342" y="73" type="line"/>
      <point x="311" y="20"/>
      <point x="257" y="-10"/>
    </contour>
  </outline>
</glyph>
<glyph name="v" format="2">
  <advance width="541"/>
  <unicode hex="0076"/>
  <outline>
    <contour>
      <point x="256" y="-12" type="line"/>
      <point x="60" y="374" type="line" smooth="yes"/>
      <point x="46" y="400"/>
      <point x="41" y="404"/>
      <point x="8" y="408" type="curve"/>
      <point x="8" y="443" type="line"/>
      <point x="298" y="443" type="line"/>
      <point x="298" y="408" type="line"/>
      <point x="245" y="403"/>
      <point x="234" y="389"/>
      <point x="252" y="350" type="curve" smooth="yes"/>
      <point x="340" y="169" type="line"/>
      <point x="424" y="342" type="line" smooth="yes"/>
      <point x="447" y="389"/>
      <point x="441" y="404"/>
      <point x="396" y="408" type="curve"/>
      <point x="396" y="443" type="line"/>
      <point x="533" y="443" type="line"/>
      <point x="533" y="408" type="line"/>
      <point x="506" y="404"/>
      <point x="491" y="389"/>
      <point x="469" y="346" type="curve" smooth="yes"/>
      <point x="285" y="-12" type="line"/>
    </contour>
  </outline>
</glyph>
<glyph name="w" format="2">
  <advance width="831"/>
  <unicode hex="0077"/>
  <outline>
    <contour>
      <point x="8" y="443" type="line"/>
      <point x="293" y="443" type="line"/>
      <point x="293" y="408" type="line"/>
      <point x="241" y="403"/>
      <point x="229" y="389"/>
      <point x="247" y="350" type="curve" smooth="yes"/>
      <point x="323" y="182" type="line"/>
      <point x="414" y="373" type="line"/>
      <point x="435" y="327" type="line"/>
      <point x="270" y="-12" type="line"/>
      <point x="246" y="-12" type="line"/>
      <point x="60" y="374" type="line" smooth="yes"/>
      <point x="48" y="399"/>
      <point x="41" y="404"/>
      <point x="8" y="408" type="curve"/>
    </contour>
    <contour>
      <point x="377" y="374" type="line" smooth="yes"/>
      <point x="365" y="398"/>
      <point x="357" y="404"/>
      <point x="323" y="408" type="curve"/>
      <point x="323" y="443" type="line"/>
      <point x="608" y="443" type="line"/>
      <point x="608" y="408" type="line"/>
      <point x="555" y="403"/>
      <point x="545" y="390"/>
      <point x="562" y="350" type="curve" smooth="yes"/>
      <point x="637" y="180" type="line"/>
      <point x="714" y="342" type="line" smooth="yes"/>
      <point x="737" y="389"/>
      <point x="731" y="404"/>
      <point x="686" y="408" type="curve"/>
      <point x="686" y="443" type="line"/>
      <point x="823" y="443" type="line"/>
      <point x="823" y="408" type="line"/>
      <point x="796" y="404"/>
      <point x="781" y="389"/>
      <point x="759" y="346" type="curve" smooth="yes"/>
      <point x="585" y="-12" type="line"/>
      <point x="561" y="-12" type="line"/>
    </contour>
  </outline>
</glyph>
<glyph name="x" format="2">
  <advance width="575"/>
  <unicode hex="0078"/>
  <outline>
    <contour>
      <point x="24" y="443" type="line"/>
      <point x="24" y="408" type="line"/>
      <point x="60" y="405"/>
      <point x="70" y="399"/>
      <point x="89" y="372" type="curve" smooth="yes"/>
      <point x="215" y="193" type="line"/>
      <point x="216" y="191" type="line"/>
      <point x="296" y="78" type="line" smooth="yes"/>
      <point x="319" y="45"/>
      <point x="315" y="40"/>
      <point x="267" y="35" type="curve"/>
      <point x="267" y="0" type="line"/>
      <point x="567" y="0" type="line"/>
      <point x="567" y="35" type="line"/>
      <point x="527" y="39"/>
      <point x="516" y="46"/>
      <point x="493" y="79" type="curve" smooth="yes"/>
      <point x="358" y="271" type="line"/>
      <point x="356" y="273" type="line"/>
      <point x="286" y="373" type="line" smooth="yes"/>
      <point x="270" y="396"/>
      <point x="275" y="404"/>
      <point x="309" y="408" type="curve"/>
      <point x="309" y="443" type="line"/>
    </contour>
    <contour>
      <point x="240" y="197" type="line"/>
      <point x="218" y="229" type="line"/>
      <point x="119" y="104" type="line" smooth="yes"/>
      <point x="75" y="48"/>
      <point x="66" y="42"/>
      <point x="19" y="35" type="curve"/>
      <point x="19" y="0" type="line"/>
      <point x="190" y="0" type="line"/>
      <point x="190" y="35" type="line"/>
      <point x="127" y="44"/>
      <point x="124" y="50"/>
      <point x="157" y="92" type="curve" smooth="yes"/>
    </contour>
    <contour>
      <point x="347" y="225" type="line"/>
      <point x="447" y="351" type="line" smooth="yes"/>
      <point x="483" y="396"/>
      <point x="492" y="402"/>
      <point x="537" y="408" type="curve"/>
      <point x="537" y="443" type="line"/>
      <point x="381" y="443" type="line"/>
      <point x="381" y="408" type="line"/>
      <point x="426" y="405"/>
      <point x="431" y="391"/>
      <point x="399" y="351" type="curve" smooth="yes"/>
      <point x="325" y="258" type="line"/>
    </contour>
  </outline>
</glyph>
<glyph name="y" format="2">
  <advance width="540"/>
  <unicode hex="0079"/>
  <outline>
    <contour>
      <point x="253" y="-28" type="line"/>
      <point x="64" y="374" type="line" smooth="yes"/>
      <point x="50" y="402"/>
      <point x="47" y="404"/>
      <point x="8" y="408" type="curve"/>
      <point x="8" y="443" type="line"/>
      <point x="293" y="443" type="line"/>
      <point x="293" y="408" type="line"/>
      <point x="234" y="400"/>
      <point x="230" y="395"/>
      <point x="251" y="350" type="curve" smooth="yes"/>
      <point x="340" y="160" type="line"/>
      <point x="427" y="346" type="line" smooth="yes"/>
      <point x="451" y="395"/>
      <point x="445" y="404"/>
      <point x="387" y="408" type="curve"/>
      <point x="387" y="443" type="line"/>
      <point x="532" y="443" type="line"/>
      <point x="532" y="408" type="line"/>
      <point x="503" y="403"/>
      <point x="497" y="397"/>
      <point x="473" y="346" type="curve" smooth="yes"/>
      <point x="294" y="-41" type="line" smooth="yes"/>
      <point x="239" y="-160"/>
      <point x="188" y="-205"/>
      <point x="108" y="-205" type="curve" smooth="yes"/>
      <point x="39" y="-205"/>
      <point x="-7" y="-162"/>
      <point x="-7" y="-99" type="curve" smooth="yes"/>
      <point x="-7" y="-36"/>
      <point x="35" y="10"/>
      <point x="92" y="10" type="curve" smooth="yes"/>
      <point x="131" y="10"/>
      <point x="161" y="-16"/>
      <point x="161" y="-50" type="curve" smooth="yes"/>
      <point x="161" y="-94"/>
      <point x="103" y="-133"/>
      <point x="103" y="-153" type="curve" smooth="yes"/>
      <point x="103" y="-162"/>
      <point x="108" y="-164"/>
      <point x="129" y="-164" type="curve" smooth="yes"/>
      <point x="168" y="-164"/>
      <point x="207" y="-127"/>
      <point x="237" y="-62" type="curve" smooth="yes"/>
    </contour>
  </outline>
</glyph>
<glyph name="z" format="2">
  <advance width="510"/>
  <unicode hex="007A"/>
  <outline>
    <contour>
      <point x="22" y="0" type="line"/>
      <point x="22" y="24" type="line"/>
      <point x="279" y="407" type="line"/>
      <point x="200" y="407" type="line" smooth="yes"/>
      <point x="159" y="407"/>
      <point x="113" y="358"/>
      <point x="67" y="263" type="curve"/>
      <point x="39" y="267" type="line"/>
      <point x="67" y="443" type="line"/>
      <point x="476" y="443" type="line"/>
      <point x="476" y="420" type="line"/>
      <point x="219" y="35" type="line"/>
      <point x="312" y="35" type="line" smooth="yes"/>
      <point x="356" y="35"/>
      <point x="423" y="104"/>
      <point x="458" y="186" type="curve"/>
      <point x="486" y="181" type="line"/>
      <point x="456" y="0" type="line"/>
    </contour>
  </outline>
</glyph>
<glyph name="braceleft" format="2">
  <advance width="507"/>
  <unicode hex="007B"/>
  <outline>
    <contour>
      <point x="434" y="-141" type="line"/>
      <point x="286" y="-139"/>
      <point x="25" y="-70"/>
      <point x="101" y="57" type="curve" smooth="yes"/>
      <point x="166" y="166" type="line" smooth="yes"/>
      <point x="206" y="234"/>
      <point x="162" y="262"/>
      <point x="30" y="278" type="curve"/>
      <point x="30" y="314" type="line"/>
      <point x="162" y="330"/>
      <point x="201" y="368"/>
      <point x="160" y="436" type="curve" smooth="yes"/>
      <point x="101" y="535" type="line" smooth="yes"/>
      <point x="27" y="659"/>
      <point x="277" y="731"/>
      <point x="434" y="733" type="curve"/>
      <point x="434" y="697" type="line"/>
      <point x="337" y="697"/>
      <point x="260" y="686"/>
      <point x="260" y="625" type="curve" smooth="yes"/>
      <point x="260" y="583"/>
      <point x="343" y="494"/>
      <point x="343" y="424" type="curve" smooth="yes"/>
      <point x="343" y="365"/>
      <point x="209" y="324"/>
      <point x="90" y="296" type="curve"/>
      <point x="209" y="269"/>
      <point x="343" y="227"/>
      <point x="343" y="168" type="curve" smooth="yes"/>
      <point x="343" y="98"/>
      <point x="260" y="9"/>
      <point x="260" y="-33" type="curve" smooth="yes"/>
      <point x="260" y="-87"/>
      <point x="337" y="-105"/>
      <point x="434" y="-105" type="curve"/>
    </contour>
  </outline>
</glyph>
<glyph name="bar" format="2">
  <advance width="304"/>
  <unicode hex="007C"/>
  <outline>
    <contour>
      <point x="129" y="-144" type="line"/>
      <point x="129" y="733" type="line"/>
      <point x="175" y="733" type="line"/>
      <point x="175" y="-144" type="line"/>
    </contour>
  </outline>
</glyph>
<glyph name="braceright" format="2">
  <advance width="507"/>
  <unicode hex="007D"/>
  <outline>
    <contour>
      <point x="73" y="-141" type="curve"/>
      <point x="73" y="-105" type="line"/>
      <point x="170" y="-105"/>
      <point x="247" y="-94"/>
      <point x="247" y="-33" type="curve" smooth="yes"/>
      <point x="247" y="9"/>
      <point x="164" y="98"/>
      <point x="164" y="168" type="curve" smooth="yes"/>
      <point x="164" y="227"/>
      <point x="298" y="268"/>
      <point x="417" y="296" type="curve"/>
      <point x="298" y="323"/>
      <point x="164" y="365"/>
      <point x="164" y="424" type="curve" smooth="yes"/>
      <point x="164" y="494"/>
      <point x="247" y="583"/>
      <point x="247" y="625" type="curve" smooth="yes"/>
      <point x="247" y="679"/>
      <point x="170" y="697"/>
      <point x="73" y="697" type="curve"/>
      <point x="73" y="733" type="line"/>
      <point x="221" y="731"/>
      <point x="482" y="662"/>
      <point x="406" y="535" type="curve" smooth="yes"/>
      <point x="341" y="426" type="line" smooth="yes"/>
      <point x="301" y="358"/>
      <point x="345" y="330"/>
      <point x="477" y="314" type="curve"/>
      <point x="477" y="278" type="line"/>
      <point x="345" y="262"/>
      <point x="306" y="224"/>
      <point x="347" y="156" type="curve" smooth="yes"/>
      <point x="406" y="57" type="line" smooth="yes"/>
      <point x="480" y="-67"/>
      <point x="230" y="-139"/>
    </contour>
  </outline>
</glyph>
<glyph name="asciitilde" format="2">
  <advance width="500"/>
  <unicode hex="007E"/>
  <outline>
    <contour>
      <point x="93" y="197" type="curve"/>
      <point x="58" y="209" type="line"/>
      <point x="96" y="326"/>
      <point x="133" y="370"/>
      <point x="194" y="370" type="curve" smooth="yes"/>
      <point x="213" y="370"/>
      <point x="236" y="365"/>
      <point x="267" y="354" type="curve" smooth="yes"/>
      <point x="302" y="341"/>
      <point x="330" y="334"/>
      <point x="350" y="334" type="curve" smooth="yes"/>
      <point x="379" y="334"/>
      <point x="398" y="348"/>
      <point x="407" y="378" type="curve"/>
      <point x="442" y="365" type="line"/>
      <point x="403" y="244"/>
      <point x="370" y="203"/>
      <point x="313" y="203" type="curve" smooth="yes"/>
      <point x="289" y="203"/>
      <point x="260" y="210"/>
      <point x="225" y="224" type="curve" smooth="yes"/>
      <point x="193" y="236"/>
      <point x="170" y="242"/>
      <point x="151" y="242" type="curve" smooth="yes"/>
      <point x="122" y="242"/>
      <point x="103" y="227"/>
    </contour>
  </outline>
</glyph>
